<svg width="61" height="80" viewBox="0 0 61 80" fill="none" xmlns="http://www.w3.org/2000/svg">
<path d="M32.9057 79.1598C32.8911 79.1598 32.8693 79.1598 32.8547 79.1598C32.8037 79.1525 32.7454 79.1525 32.6943 79.1452C32.308 79.1161 32.0165 78.7735 32.0456 78.3799C32.0748 77.9936 32.4174 77.702 32.811 77.7312C32.862 77.7385 32.913 77.7385 32.964 77.7458C33.3576 77.7749 33.6492 78.1175 33.62 78.5038C33.5836 78.8755 33.2701 79.1598 32.9057 79.1598ZM37.0967 79.1525C36.7323 79.1525 36.4189 78.8682 36.3897 78.4965C36.3605 78.1029 36.6521 77.7676 37.0384 77.7385C37.0894 77.7312 37.1404 77.7312 37.1915 77.7239C37.5778 77.6948 37.9203 77.979 37.9568 78.3726C37.9859 78.7589 37.7017 79.1015 37.3081 79.1379C37.2571 79.1452 37.1987 79.1452 37.1477 79.1525C37.1332 79.1525 37.1186 79.1525 37.0967 79.1525ZM41.397 78.4746C41.0763 78.4746 40.7848 78.256 40.7119 77.928C40.6171 77.549 40.8577 77.1627 41.2367 77.0752C41.2877 77.0606 41.3387 77.0533 41.3825 77.0388C41.7615 76.944 42.1478 77.1773 42.2425 77.5563C42.3373 77.9353 42.104 78.3216 41.725 78.4163C41.674 78.4309 41.623 78.4382 41.5647 78.4528C41.5064 78.4674 41.4481 78.4746 41.397 78.4746ZM28.6127 78.4746C28.5543 78.4746 28.496 78.4674 28.445 78.4528C28.394 78.4382 28.343 78.4236 28.292 78.4163C27.9129 78.3216 27.6797 77.9353 27.7817 77.5563C27.8765 77.1773 28.2628 76.944 28.6418 77.0461C28.6928 77.0606 28.7439 77.0679 28.7876 77.0825C29.1666 77.1773 29.3998 77.5636 29.3051 77.9426C29.2176 78.256 28.9261 78.4746 28.6127 78.4746ZM45.5297 77.1262C45.2528 77.1262 44.9904 76.9659 44.8737 76.6889C44.7207 76.3245 44.8956 75.9163 45.2528 75.7632C45.2965 75.7414 45.3475 75.7268 45.3912 75.7049C45.7484 75.5519 46.1639 75.7195 46.3169 76.0767C46.47 76.4338 46.3023 76.8493 45.9452 77.0023C45.8942 77.0242 45.8431 77.0461 45.7994 77.0679C45.7192 77.1117 45.6245 77.1262 45.5297 77.1262ZM24.4945 77.0679C24.3998 77.0679 24.2977 77.0461 24.2103 77.0096C24.1593 76.9877 24.1082 76.9659 24.0645 76.944C23.7074 76.7837 23.547 76.3609 23.7147 76.0038C23.875 75.6466 24.2977 75.4863 24.6549 75.6539C24.6986 75.6758 24.7496 75.6976 24.7934 75.7195C25.1505 75.8799 25.3109 76.2953 25.1505 76.6525C25.0266 76.9076 24.7642 77.0679 24.4945 77.0679ZM49.3927 75.1291C49.1595 75.1291 48.9263 75.0125 48.7951 74.8011C48.5837 74.4731 48.6857 74.0358 49.0137 73.8245C49.0575 73.7953 49.1012 73.7661 49.1449 73.7443C49.4729 73.5329 49.9102 73.6277 50.1216 73.9557C50.333 74.2836 50.2382 74.721 49.9102 74.9323C49.8665 74.9615 49.8228 74.9906 49.7718 75.0198C49.6551 75.0927 49.5239 75.1291 49.3927 75.1291ZM20.6971 74.9469C20.5586 74.9469 20.4202 74.9105 20.2963 74.823C20.2525 74.7938 20.2088 74.7647 20.1651 74.7283C19.8444 74.5023 19.7642 74.065 19.9828 73.7443C20.2088 73.4236 20.6461 73.3434 20.9668 73.5621C21.0105 73.5912 21.047 73.6204 21.0907 73.6495C21.4114 73.8682 21.4989 74.3128 21.2729 74.6335C21.149 74.8376 20.9231 74.9469 20.6971 74.9469ZM52.8549 72.4906C52.6654 72.4906 52.4686 72.4104 52.3301 72.2574C52.0677 71.9658 52.0823 71.5212 52.3738 71.2588C52.4103 71.2224 52.4467 71.1932 52.4832 71.1568C52.7674 70.8944 53.2193 70.909 53.4817 71.1932C53.7441 71.4775 53.7295 71.9294 53.4453 72.1918C53.4088 72.2282 53.3651 72.2647 53.3286 72.3011C53.1974 72.425 53.0225 72.4906 52.8549 72.4906ZM17.3298 72.1918C17.1548 72.1918 16.9726 72.1262 16.8341 71.995C16.7977 71.9585 16.7539 71.9221 16.7175 71.8857C16.4405 71.6087 16.4332 71.1641 16.7029 70.8871C16.9799 70.6101 17.4245 70.6029 17.7015 70.8725C17.7379 70.909 17.7744 70.9454 17.8108 70.9819C18.0951 71.2515 18.1024 71.7034 17.8254 71.9804C17.7015 72.1189 17.5193 72.1918 17.3298 72.1918ZM14.458 68.9264C14.2393 68.9264 14.028 68.8244 13.8895 68.6422C13.8603 68.5985 13.8239 68.5547 13.7947 68.511C13.5615 68.1976 13.6271 67.753 13.9478 67.5197C14.2612 67.2865 14.7058 67.3521 14.9391 67.6728C14.9682 67.7165 14.9974 67.753 15.0338 67.7967C15.267 68.1101 15.2014 68.5547 14.888 68.788C14.7568 68.8827 14.6111 68.9264 14.458 68.9264ZM12.1402 65.2457C11.8851 65.2457 11.6373 65.1072 11.5134 64.8666C11.4915 64.8156 11.4623 64.7719 11.4405 64.7209C11.2583 64.371 11.3967 63.9483 11.7466 63.766C12.0965 63.5838 12.5192 63.7223 12.7014 64.0722C12.7233 64.1159 12.7452 64.1596 12.7743 64.2107C12.9565 64.5605 12.8253 64.9833 12.4755 65.1655C12.3661 65.2165 12.2568 65.2457 12.1402 65.2457ZM10.4346 61.2442C10.1358 61.2442 9.86612 61.0546 9.76408 60.7631C9.7495 60.7121 9.72764 60.6611 9.71306 60.61C9.58915 60.2383 9.79323 59.8374 10.165 59.7135C10.5367 59.5896 10.9376 59.7937 11.0615 60.1654C11.076 60.2164 11.0906 60.2602 11.1125 60.3112C11.2364 60.6829 11.0396 61.0838 10.6679 61.2077C10.5804 61.2296 10.5075 61.2442 10.4346 61.2442ZM9.38507 57.024C9.0425 57.024 8.74366 56.7762 8.68535 56.4263C8.67806 56.3753 8.67077 56.317 8.66349 56.266C8.60518 55.8797 8.86757 55.5152 9.25387 55.4569C9.64017 55.3986 10.0046 55.661 10.0629 56.0473C10.0702 56.0983 10.0775 56.1494 10.0848 56.2004C10.1504 56.5867 9.8807 56.9511 9.4944 57.0094C9.46524 57.0167 9.42151 57.024 9.38507 57.024ZM9.07165 52.6872C9.06436 52.6872 9.06436 52.6872 9.05708 52.6872C8.66349 52.6799 8.35736 52.3592 8.35736 51.9656C8.35736 51.9146 8.35736 51.8563 8.35736 51.8053C8.36465 51.4117 8.69264 51.1056 9.07894 51.1129C9.47253 51.1202 9.77866 51.4481 9.77137 51.8344C9.77137 51.8855 9.77137 51.9365 9.77137 51.9875C9.77137 52.3738 9.45795 52.6872 9.07165 52.6872ZM9.56 48.365C9.50898 48.365 9.45795 48.3577 9.40693 48.3504C9.02792 48.2703 8.78011 47.8913 8.86757 47.505C8.88215 47.4539 8.88944 47.3956 8.90401 47.3446C8.99148 46.9656 9.37049 46.7251 9.7495 46.8125C10.1285 46.9 10.369 47.279 10.2816 47.658C10.267 47.709 10.2597 47.7601 10.2451 47.8038C10.1795 48.1391 9.8807 48.365 9.56 48.365ZM45.0851 46.0764C44.7571 46.0764 44.4583 45.8431 44.3927 45.5079C44.3125 45.1216 44.5603 44.7498 44.9466 44.6697C44.9904 44.6624 45.0341 44.6478 45.0851 44.6405C45.4641 44.553 45.8431 44.7936 45.9306 45.1726C46.0181 45.5516 45.7775 45.9306 45.3985 46.0181C45.3402 46.0326 45.2819 46.0472 45.2236 46.0545C45.1799 46.0691 45.1361 46.0764 45.0851 46.0764ZM40.9889 45.5589C40.9014 45.5589 40.8139 45.5443 40.7265 45.5079C40.6755 45.486 40.6244 45.4641 40.5734 45.4423C40.2163 45.2892 40.0413 44.8737 40.1944 44.5166C40.3475 44.1594 40.7629 43.9845 41.1201 44.1376C41.1638 44.1594 41.2075 44.174 41.2586 44.1959C41.623 44.3417 41.7979 44.7571 41.6521 45.1143C41.5282 45.3912 41.2658 45.5589 40.9889 45.5589ZM10.9521 44.2469C10.8501 44.2469 10.7481 44.225 10.646 44.174C10.2962 44.0064 10.1431 43.5836 10.318 43.2265C10.3399 43.1755 10.369 43.1245 10.3909 43.0807C10.5658 42.7309 10.9886 42.5851 11.3384 42.76C11.6883 42.9349 11.8341 43.3577 11.6591 43.7076C11.6373 43.7513 11.6154 43.795 11.5935 43.846C11.4696 44.1011 11.2145 44.2469 10.9521 44.2469ZM48.4962 43.6201C48.4015 43.6201 48.2994 43.5982 48.2047 43.5545C47.8475 43.3941 47.6872 42.9714 47.8548 42.6142C47.8694 42.5778 47.8913 42.5341 47.9058 42.4976C48.0516 42.1332 48.4671 41.9583 48.8242 42.104C49.1887 42.2498 49.3636 42.658 49.2178 43.0224C49.196 43.0807 49.1668 43.139 49.1449 43.1973C49.021 43.467 48.7659 43.6201 48.4962 43.6201ZM37.1987 43.4233C37.0676 43.4233 36.9291 43.3868 36.8124 43.3067L36.6813 43.2192C36.3533 43.0078 36.2658 42.5632 36.4772 42.2352C36.6885 41.9072 37.1332 41.8198 37.4611 42.0311L37.5923 42.1186C37.9203 42.33 38.0078 42.7746 37.7964 43.1026C37.6579 43.314 37.4247 43.4233 37.1987 43.4233ZM33.5252 41.0763C33.4013 41.0763 33.2701 41.0399 33.1608 40.9743L33.0296 40.8941C32.6943 40.69 32.585 40.26 32.7891 39.9247C32.9932 39.5894 33.4232 39.4801 33.7585 39.6842L33.897 39.7644C34.2322 39.9684 34.3343 40.4058 34.1375 40.741C33.999 40.9597 33.7658 41.0763 33.5252 41.0763ZM13.3866 40.6536C13.2116 40.6536 13.0367 40.588 12.8982 40.4568C12.614 40.1871 12.5994 39.7425 12.8691 39.4582C12.9055 39.4145 12.9492 39.3781 12.9857 39.3343C13.2554 39.0501 13.7073 39.0501 13.9842 39.3197C14.2685 39.5894 14.2685 40.0413 13.9988 40.3183C13.9624 40.3547 13.9332 40.3912 13.8968 40.4276C13.7583 40.5807 13.5761 40.6536 13.3866 40.6536ZM47.9131 39.5093C47.6872 39.5093 47.4685 39.4072 47.33 39.2104C47.3009 39.174 47.279 39.1375 47.2499 39.1011C47.0166 38.7877 47.0822 38.3431 47.3956 38.1098C47.7091 37.8766 48.1537 37.9422 48.3869 38.2556C48.4233 38.2993 48.4598 38.3504 48.4889 38.4014C48.7149 38.7221 48.6347 39.1667 48.314 39.3853C48.1974 39.4655 48.0516 39.5093 47.9131 39.5093ZM29.6987 39.0136C29.5966 39.0136 29.5019 38.9918 29.4071 38.948C29.3634 38.9262 29.3124 38.9043 29.2686 38.8824C28.9115 38.7221 28.7511 38.2993 28.9115 37.9422C29.0718 37.585 29.4946 37.4247 29.8517 37.585C29.9028 37.6069 29.9465 37.6288 29.9975 37.6506C30.3547 37.811 30.5077 38.2337 30.3474 38.5909C30.2235 38.8606 29.9684 39.0136 29.6987 39.0136ZM16.8997 38.1317C16.63 38.1317 16.3676 37.9786 16.251 37.7089C16.0907 37.3518 16.251 36.9363 16.6082 36.776C16.6592 36.7541 16.7102 36.7323 16.7612 36.7104C17.1184 36.5573 17.5338 36.725 17.6942 37.0821C17.8472 37.4393 17.6796 37.8547 17.3225 38.0151C17.2787 38.0369 17.235 38.0515 17.1913 38.0734C17.0965 38.1171 16.9945 38.1317 16.8997 38.1317ZM25.5951 37.5705C25.5441 37.5705 25.4858 37.5632 25.4348 37.5486C25.3838 37.534 25.3327 37.5267 25.289 37.5121C24.91 37.4247 24.6695 37.0457 24.7496 36.6667C24.8371 36.2877 25.2161 36.0471 25.5951 36.1273C25.6462 36.1419 25.7045 36.1492 25.7555 36.1637C26.1345 36.2512 26.375 36.6302 26.2876 37.0165C26.2074 37.3518 25.9158 37.5705 25.5951 37.5705ZM21.1199 37.155C20.7482 37.155 20.4347 36.8635 20.4129 36.4844C20.391 36.0909 20.6898 35.7629 21.0834 35.741C21.1417 35.741 21.1928 35.7337 21.2511 35.7337C21.6447 35.7191 21.9727 36.018 21.9872 36.4116C22.0018 36.8051 21.703 37.1331 21.3094 37.1477C21.2584 37.1477 21.2073 37.155 21.1636 37.155C21.1417 37.155 21.1345 37.155 21.1199 37.155ZM44.3927 37.0821C44.3198 37.0821 44.2542 37.0748 44.1813 37.053C44.1376 37.0384 44.0866 37.0238 44.0428 37.0092C43.6711 36.8999 43.4525 36.5063 43.5618 36.1273C43.6711 35.7556 44.0647 35.5369 44.4437 35.6462C44.4947 35.6608 44.5531 35.6754 44.6041 35.6973C44.9758 35.8139 45.1872 36.2075 45.0705 36.5865C44.9758 36.8853 44.6988 37.0821 44.3927 37.0821ZM40.0997 36.4553C40.0851 36.4553 40.0778 36.4553 40.0632 36.4553L39.9101 36.448C39.5166 36.4261 39.2177 36.0981 39.2396 35.7046C39.2615 35.311 39.5894 35.0121 39.983 35.034L40.1434 35.0413C40.537 35.0631 40.8358 35.3911 40.8139 35.7847C40.7848 36.1565 40.4714 36.4553 40.0997 36.4553ZM35.7483 36.2148C35.7264 36.2148 35.7119 36.2148 35.69 36.2148C35.639 36.2075 35.5807 36.2075 35.5296 36.2002C35.1433 36.1637 34.8518 35.8212 34.8882 35.4349C34.9247 35.0486 35.2672 34.757 35.6535 34.7935C35.7046 34.8008 35.7556 34.8008 35.8066 34.808C36.1929 34.8372 36.4845 35.1798 36.4553 35.5734C36.4261 35.9378 36.1127 36.2148 35.7483 36.2148ZM31.4553 35.5223C31.3969 35.5223 31.3313 35.515 31.273 35.5005C31.222 35.4859 31.171 35.4713 31.1127 35.4567C30.7337 35.3547 30.515 34.9611 30.6171 34.5821C30.7191 34.2031 31.1127 33.9844 31.4917 34.0865C31.5427 34.101 31.5864 34.1156 31.6375 34.1229C32.0165 34.2249 32.2424 34.6112 32.1404 34.9903C32.0529 35.3183 31.7687 35.5223 31.4553 35.5223ZM27.4902 33.7658C27.3517 33.7658 27.2132 33.7293 27.0966 33.6419C27.0529 33.6127 27.0019 33.5763 26.9581 33.5471C26.6374 33.3211 26.5572 32.8838 26.7832 32.5631C27.0091 32.2424 27.4465 32.1622 27.7672 32.3882C27.8109 32.4174 27.8473 32.4465 27.8911 32.4757C28.2118 32.6943 28.2992 33.1389 28.0806 33.4596C27.9421 33.6564 27.7234 33.7658 27.4902 33.7658ZM24.5091 30.6389C24.2613 30.6389 24.0281 30.5077 23.8969 30.2818C23.8677 30.2307 23.8386 30.1797 23.8167 30.1287C23.6272 29.7861 23.7584 29.3561 24.101 29.1666C24.4435 28.9771 24.8736 29.1083 25.0631 29.4509C25.0849 29.4946 25.1068 29.531 25.1359 29.5748C25.3327 29.9173 25.2161 30.3474 24.8736 30.5442C24.7496 30.6098 24.633 30.6389 24.5091 30.6389ZM44.6186 30.1214C44.6114 30.1214 44.6041 30.1214 44.5968 30.1214C44.5385 30.1214 44.4874 30.1141 44.4291 30.1141C44.0355 30.0923 43.7367 29.7643 43.7586 29.3707C43.7804 28.9771 44.1084 28.6782 44.502 28.7001C44.553 28.7001 44.6041 28.7074 44.6478 28.7074C45.0414 28.722 45.3475 29.05 45.3329 29.4436C45.3111 29.8226 44.9977 30.1214 44.6186 30.1214ZM48.7441 29.5092C48.4525 29.5092 48.1755 29.3269 48.0735 29.0354C47.9423 28.6637 48.1391 28.2628 48.5035 28.1316C48.5473 28.117 48.5983 28.0952 48.642 28.0806C49.0064 27.9421 49.4146 28.1316 49.5531 28.5033C49.6916 28.8678 49.5021 29.2759 49.1304 29.4144C49.0793 29.4363 49.0283 29.4508 48.97 29.4727C48.9044 29.4946 48.8242 29.5092 48.7441 29.5092ZM40.3766 29.2322C40.2892 29.2322 40.2017 29.2176 40.1215 29.1812C40.0705 29.1593 40.0195 29.1374 39.9685 29.1229C39.604 28.9771 39.4291 28.5616 39.5749 28.1972C39.7206 27.8328 40.1361 27.6578 40.5005 27.8036C40.5443 27.8255 40.5953 27.84 40.639 27.8619C41.0034 28.0077 41.1857 28.4159 41.0399 28.7803C40.9306 29.0573 40.6609 29.2322 40.3766 29.2322ZM52.4759 27.308C52.2791 27.308 52.0823 27.2278 51.9438 27.0674C51.6814 26.7759 51.7106 26.324 52.0021 26.0689C52.0385 26.0397 52.075 26.0033 52.1114 25.9669C52.403 25.7045 52.8476 25.7263 53.11 26.0106C53.3724 26.3021 53.3505 26.7467 53.0662 27.0091C53.0225 27.0456 52.9861 27.082 52.9423 27.1185C52.8111 27.2497 52.6435 27.308 52.4759 27.308ZM36.6448 27.0237C36.4845 27.0237 36.3241 26.9727 36.1929 26.8634C36.1492 26.8269 36.1054 26.7905 36.069 26.754C35.7702 26.4989 35.7337 26.0543 35.9888 25.7555C36.2439 25.4566 36.6885 25.4202 36.9874 25.6753C37.0238 25.7045 37.0603 25.7409 37.104 25.7701C37.4028 26.0179 37.4466 26.4698 37.1987 26.7686C37.0457 26.9362 36.8416 27.0237 36.6448 27.0237ZM23.6563 26.4552C23.6199 26.4552 23.5835 26.4552 23.547 26.4479C23.1607 26.3896 22.8983 26.0252 22.9566 25.6389C22.9639 25.5806 22.9785 25.5222 22.9858 25.4639C23.0587 25.0776 23.4231 24.8225 23.8094 24.8954C24.1957 24.9683 24.4508 25.3327 24.3779 25.719C24.3706 25.7628 24.3633 25.8138 24.3561 25.8575C24.2977 26.2074 23.9989 26.4552 23.6563 26.4552ZM33.518 23.9916C33.343 23.9916 33.1681 23.926 33.0296 23.7948C32.9932 23.7584 32.9567 23.7219 32.9203 23.6928C32.636 23.4231 32.6214 22.9785 32.8911 22.6942C33.1608 22.41 33.6054 22.3954 33.8897 22.6651C33.9261 22.7015 33.9699 22.738 34.0063 22.7744C34.2906 23.0441 34.2978 23.496 34.0282 23.773C33.8897 23.9187 33.7075 23.9916 33.518 23.9916ZM55.0561 23.8458C54.9613 23.8458 54.8593 23.824 54.7645 23.7802C54.4074 23.6199 54.247 23.1971 54.4074 22.84C54.4292 22.7963 54.4438 22.7525 54.4657 22.7088C54.6187 22.3517 55.0342 22.184 55.3986 22.3371C55.7558 22.4901 55.9234 22.9056 55.7704 23.27C55.7485 23.3211 55.7266 23.3721 55.7048 23.4231C55.5881 23.6855 55.3257 23.8458 55.0561 23.8458ZM25.6899 22.7015C25.4931 22.7015 25.2963 22.6213 25.1578 22.461C24.9027 22.1694 24.9319 21.7175 25.2234 21.4624C25.2671 21.426 25.3109 21.3823 25.3619 21.3458C25.6607 21.098 26.1126 21.1417 26.3605 21.4406C26.6083 21.7394 26.5645 22.1913 26.2657 22.4391C26.2293 22.4683 26.1928 22.4974 26.1637 22.5266C26.0252 22.6432 25.8575 22.7015 25.6899 22.7015ZM29.8882 21.6738C29.8299 21.6738 29.7716 21.6665 29.7133 21.6519C29.6695 21.6374 29.6258 21.6301 29.5821 21.6228C29.203 21.5353 28.9625 21.1563 29.05 20.7773C29.1374 20.3983 29.5165 20.1578 29.8955 20.2452C29.9538 20.2598 30.0121 20.2744 30.0704 20.289C30.4494 20.3837 30.6754 20.7773 30.5806 21.149C30.4931 21.4624 30.2016 21.6738 29.8882 21.6738ZM55.9088 19.6111C55.5225 19.6111 55.2091 19.2977 55.2018 18.9114C55.2018 18.8604 55.2018 18.8166 55.2018 18.7656C55.1873 18.372 55.5007 18.0513 55.887 18.0367C56.2806 18.0222 56.6013 18.3356 56.6158 18.7219C56.6158 18.7802 56.6158 18.8312 56.6231 18.8895C56.6304 19.2831 56.317 19.6038 55.9234 19.6111C55.9161 19.6111 55.9161 19.6111 55.9088 19.6111ZM55.0634 15.3618C54.7791 15.3618 54.5094 15.1869 54.4001 14.9026C54.3855 14.8589 54.3636 14.8079 54.3491 14.7641C54.2106 14.3997 54.3855 13.9915 54.7499 13.8457C55.1144 13.7073 55.5225 13.8822 55.6683 14.2466C55.6902 14.2976 55.7048 14.3487 55.7266 14.3997C55.8651 14.7641 55.6829 15.1723 55.3112 15.3108C55.231 15.3472 55.1435 15.3618 55.0634 15.3618ZM12.9784 15.2306C12.8691 15.2306 12.767 15.2087 12.665 15.1577C12.3151 14.9828 12.1694 14.56 12.3443 14.2102C12.3661 14.1592 12.3953 14.1154 12.4172 14.0644C12.5921 13.7145 13.0221 13.5761 13.372 13.751C13.7218 13.9259 13.8603 14.356 13.6854 14.7058C13.6635 14.7495 13.6417 14.7933 13.6198 14.8443C13.4886 15.0848 13.2335 15.2306 12.9784 15.2306ZM15.2743 11.5425C15.1213 11.5425 14.9755 11.4915 14.8443 11.3967C14.5309 11.1562 14.4726 10.7116 14.7131 10.4055C14.7423 10.3617 14.7787 10.318 14.8151 10.2743C15.0557 9.96816 15.5003 9.90985 15.8064 10.1504C16.1125 10.3909 16.1708 10.8355 15.9303 11.1416C15.9012 11.1854 15.8647 11.2218 15.8356 11.2655C15.7044 11.4405 15.493 11.5425 15.2743 11.5425ZM53.0007 11.5352C52.782 11.5352 52.5633 11.4332 52.4248 11.2364C52.3957 11.1927 52.3665 11.1562 52.3374 11.1125C52.1114 10.7991 52.177 10.3545 52.4977 10.1212C52.8111 9.89527 53.2558 9.96087 53.489 10.2816C53.5181 10.3253 53.5546 10.369 53.5837 10.4128C53.8097 10.7335 53.7368 11.1708 53.4161 11.3967C53.2849 11.4915 53.1464 11.5352 53.0007 11.5352ZM18.219 8.33549C18.0295 8.33549 17.8327 8.25531 17.6942 8.10225C17.4318 7.8107 17.4537 7.36609 17.7452 7.1037C17.7816 7.06725 17.8254 7.03081 17.8618 6.99437C18.1534 6.73197 18.598 6.75384 18.8604 7.04539C19.1228 7.33694 19.1009 7.78155 18.8094 8.04394C18.7729 8.08038 18.7365 8.10954 18.6927 8.14598C18.5615 8.27718 18.3866 8.33549 18.219 8.33549ZM50.107 8.29176C49.9394 8.29176 49.7645 8.23345 49.6333 8.10954C49.5968 8.07309 49.5604 8.04394 49.5167 8.0075C49.2251 7.7451 49.2032 7.30049 49.4583 7.00894C49.7207 6.7174 50.1653 6.69553 50.4569 6.95063C50.5006 6.98708 50.5371 7.02352 50.5808 7.05997C50.8723 7.32236 50.8942 7.77426 50.6318 8.05852C50.486 8.21887 50.2965 8.29176 50.107 8.29176ZM21.6884 5.71156C21.4552 5.71156 21.2219 5.59494 21.0907 5.37628C20.8866 5.04828 20.9814 4.61096 21.3167 4.39959C21.3604 4.37043 21.4114 4.34128 21.4552 4.31212C21.7904 4.10804 22.2278 4.21008 22.4318 4.54536C22.6359 4.88064 22.5339 5.31797 22.1986 5.52205C22.1549 5.5512 22.1111 5.57307 22.0674 5.60223C21.9435 5.67511 21.8123 5.71156 21.6884 5.71156ZM46.623 5.68969C46.4991 5.68969 46.3679 5.65325 46.2513 5.58765C46.2076 5.55849 46.1638 5.53663 46.1201 5.50747C45.7848 5.30339 45.6755 4.87336 45.8796 4.53807C46.0837 4.20279 46.5137 4.09346 46.849 4.29755C46.8927 4.3267 46.9437 4.35586 46.9875 4.38501C47.3228 4.5891 47.4248 5.02642 47.2207 5.3617C47.0968 5.57307 46.8636 5.68969 46.623 5.68969ZM42.7236 3.75818C42.6361 3.75818 42.5487 3.74361 42.4685 3.70716C42.4175 3.6853 42.3737 3.67072 42.3227 3.64885C41.9583 3.51037 41.7761 3.1022 41.9145 2.73777C42.053 2.37333 42.4612 2.19111 42.8256 2.3296C42.8766 2.35147 42.9277 2.36604 42.9787 2.38791C43.3431 2.52639 43.5253 2.94185 43.3796 3.30628C43.2775 3.59054 43.0078 3.75818 42.7236 3.75818ZM25.566 3.73632C25.2817 3.73632 25.0193 3.56868 24.91 3.29171C24.7642 2.92727 24.9392 2.5191 25.3036 2.37333C25.3546 2.35146 25.4056 2.33689 25.4567 2.31502C25.8211 2.16925 26.2293 2.35147 26.375 2.7159C26.5208 3.08034 26.3386 3.4885 25.9741 3.63428C25.9231 3.65614 25.8794 3.67072 25.8284 3.69259C25.7409 3.72174 25.6462 3.73632 25.566 3.73632ZM38.5472 2.55555C38.5034 2.55555 38.4597 2.54826 38.4087 2.54097C38.3577 2.53368 38.3066 2.51911 38.2556 2.51182C37.8693 2.43893 37.6215 2.06721 37.6871 1.68819C37.76 1.30189 38.1317 1.04679 38.5107 1.11967C38.5617 1.12696 38.62 1.14154 38.6711 1.14883C39.0574 1.22172 39.3052 1.59344 39.2323 1.97974C39.174 2.31502 38.8824 2.55555 38.5472 2.55555ZM29.7351 2.51182C29.3998 2.51182 29.1083 2.27858 29.0427 1.93601C28.9698 1.54971 29.2176 1.17798 29.6039 1.1051C29.6549 1.09781 29.7133 1.08323 29.7643 1.07594C30.1506 1.00306 30.515 1.25816 30.5879 1.64446C30.6608 2.03076 30.4057 2.3952 30.0194 2.46808C29.9684 2.47537 29.9173 2.48995 29.8663 2.49724C29.8226 2.51182 29.7789 2.51182 29.7351 2.51182ZM34.225 2.11094C34.2177 2.11094 34.2177 2.11094 34.225 2.11094C34.1666 2.11094 34.1156 2.11094 34.0646 2.11094C33.671 2.11094 33.3576 1.79024 33.3576 1.40393C33.3576 1.01034 33.6783 0.69693 34.0646 0.69693C34.1156 0.69693 34.1739 0.69693 34.225 0.69693C34.6185 0.704219 34.932 1.01763 34.9247 1.41122C34.9247 1.79752 34.6113 2.11094 34.225 2.11094Z" fill="#CF0D14"/>
<path d="M1.46956 24.7642C0.718825 25.6024 0.419988 27.031 0.675092 27.257C0.930197 27.4829 2.32234 27.0383 3.07307 26.2001C3.82381 25.3619 11.2218 16.8341 11.856 16.1271C12.1912 15.7554 13.0294 13.9697 12.8035 13.7729C12.5848 13.5761 10.8938 14.5892 10.5586 14.9682C9.91716 15.6752 2.2203 23.9333 1.46956 24.7642Z" fill="#CF0D14"/>
<path d="M11.4332 15.5951L14.0863 17.2131C14.1592 17.2569 14.254 17.2423 14.3123 17.1767L14.6257 16.8341C14.6913 16.7612 14.684 16.6519 14.6111 16.5863L12.3079 14.5163L11.4332 15.5951Z" fill="#CF0D14"/>
<path d="M11.1417 15.3253L9.25389 12.8618C9.20287 12.7962 9.20287 12.7014 9.26118 12.6358L9.57459 12.2932C9.64019 12.2204 9.74952 12.2131 9.82241 12.2787L12.1256 14.3487L11.1417 15.3253Z" fill="#CF0D14"/>
<path d="M13.4668 12.8472L13.6563 13.0221C13.6782 13.044 13.6782 13.0804 13.6636 13.1023L10.9376 16.1344C10.9158 16.1563 10.8793 16.1563 10.8575 16.1417L10.668 15.9668C10.6461 15.9449 10.6461 15.9084 10.6607 15.8866L13.3866 12.8545C13.4085 12.8253 13.445 12.8253 13.4668 12.8472Z" fill="#CF0D14"/>
<path d="M14.4654 23.5251L4.95361 23.2263L7.79621 20.063L15.2525 22.4318C15.3546 22.4683 15.391 22.5922 15.3181 22.6723L14.6111 23.4595C14.5747 23.5033 14.5237 23.5251 14.4654 23.5251Z" fill="#CF0D14"/>
<path d="M13.2773 20.821L13.5469 21.0615C13.5834 21.0907 13.5834 21.1417 13.5542 21.1782L12.5557 22.286C12.5265 22.3225 12.4755 22.3225 12.4391 22.2933L12.1694 22.0528C12.1329 22.0237 12.1329 21.9726 12.1621 21.9362L13.1606 20.8283C13.1898 20.7919 13.2408 20.7919 13.2773 20.821Z" fill="#CF0D14"/>
<path d="M11.8779 20.5732L12.1476 20.8137C12.184 20.8429 12.184 20.8939 12.1549 20.9304L11.1563 22.0382C11.1272 22.0747 11.0761 22.0747 11.0397 22.0455L10.77 21.805C10.7336 21.7759 10.7336 21.7248 10.7627 21.6884L11.7613 20.5805C11.7977 20.5514 11.8487 20.5441 11.8779 20.5732Z" fill="#CF0D14"/>
<path d="M2.92736 13.1533L4.23204 22.5776L7.07463 19.4143L3.9332 12.2495C3.88947 12.1475 3.75827 12.1256 3.68539 12.2131L2.97838 13.0003C2.94194 13.0367 2.92007 13.095 2.92736 13.1533Z" fill="#CF0D14"/>
<path d="M5.74808 14.0498L5.4784 13.8093C5.44196 13.7801 5.39094 13.7801 5.36178 13.8166L4.37052 14.9172C4.34136 14.9536 4.34136 15.0046 4.37781 15.0338L4.64749 15.2743C4.68393 15.3035 4.73495 15.3035 4.76411 15.267L5.76266 14.1592C5.78453 14.13 5.78453 14.079 5.74808 14.0498Z" fill="#CF0D14"/>
<path d="M6.13446 15.4128L5.86478 15.1723C5.82834 15.1431 5.77731 15.1431 5.74816 15.1796L4.74961 16.2874C4.72045 16.3239 4.72045 16.3749 4.7569 16.4041L5.02658 16.6446C5.06302 16.6738 5.11404 16.6737 5.1432 16.6373L6.14175 15.5294C6.1709 15.493 6.1709 15.442 6.13446 15.4128Z" fill="#CF0D14"/>
<path d="M56.8709 70.7049C58.626 70.7049 60.0488 69.2821 60.0488 67.527C60.0488 65.7719 58.626 64.3492 56.8709 64.3492C55.1158 64.3492 53.6931 65.7719 53.6931 67.527C53.6931 69.2821 55.1158 70.7049 56.8709 70.7049Z" fill="#CF0D14"/>
<path d="M56.871 70.8434C55.0415 70.8434 53.5619 69.3565 53.5619 67.5343C53.5619 65.7122 55.0488 64.2253 56.871 64.2253C58.7004 64.2253 60.18 65.7122 60.18 67.5343C60.18 69.3565 58.6931 70.8434 56.871 70.8434ZM56.871 64.4804C55.1873 64.4804 53.8243 65.8507 53.8243 67.5271C53.8243 69.2035 55.1946 70.5737 56.871 70.5737C58.5474 70.5737 59.9176 69.2035 59.9176 67.5271C59.9176 65.8507 58.5546 64.4804 56.871 64.4804Z" fill="#CF0D14"/>
<path d="M58.5036 67.527C58.5036 68.4308 57.7748 69.1597 56.871 69.1597C55.9672 69.1597 55.2383 68.4308 55.2383 67.527C55.2383 66.6232 55.9672 65.8944 56.871 65.8944C57.7748 65.8944 58.5036 66.6232 58.5036 67.527Z" fill="#CF0D14"/>
</svg>
