<svg width="42" height="82" viewBox="0 0 42 82" fill="none" xmlns="http://www.w3.org/2000/svg">
<path d="M40.6342 4.92229C40.6831 5.04725 40.7266 5.1722 40.77 5.29716L40.4006 5.42212C40.3571 5.3026 40.3137 5.17763 40.2702 5.05811L40.6342 4.92229Z" fill="black"/>
<path d="M41.0906 6.44349C41.1503 6.69883 41.1992 6.96505 41.2372 7.22582L40.8515 7.28557C40.8135 7.03023 40.7646 6.78031 40.7103 6.5304L41.0906 6.44349ZM41.3568 8.41559C41.3676 8.62204 41.3731 8.83392 41.3731 9.0458C41.3731 9.10013 41.3731 9.15989 41.3731 9.21422L40.9819 9.2088C40.9819 9.15447 40.9819 9.10013 40.9819 9.0458C40.9819 8.84479 40.9765 8.63834 40.9656 8.43733L41.3568 8.41559ZM7.51572 10.3334C7.77649 10.3388 8.04271 10.3497 8.31435 10.3714L8.28175 10.7626C8.02097 10.7408 7.76563 10.7245 7.51572 10.7245L7.51572 10.3334ZM40.9113 10.3606L41.3024 10.404C41.2753 10.6648 41.2372 10.931 41.1884 11.1918L40.8026 11.1266C40.8461 10.8712 40.8841 10.6159 40.9113 10.3606ZM6.31506 10.3986L6.36396 10.7843C6.10861 10.8169 5.85328 10.8604 5.61423 10.9147L5.52731 10.5344C5.78265 10.4801 6.04886 10.4312 6.31506 10.3986ZM9.49327 10.5398C9.74861 10.5887 10.0094 10.6485 10.2702 10.7191L10.1724 11.0994C9.92246 11.0342 9.66712 10.9745 9.42264 10.9256L9.49327 10.5398ZM4.37555 10.9038L4.52767 11.2624C4.29406 11.3602 4.06588 11.4743 3.84857 11.5992L3.65298 11.257C3.88659 11.1266 4.12564 11.0071 4.37555 10.9038ZM11.4111 11.0668C11.6555 11.1537 11.9054 11.2461 12.1553 11.3493L12.0087 11.7133C11.7696 11.6155 11.5251 11.5232 11.2861 11.4363L11.4111 11.0668ZM13.2311 11.8383C13.4647 11.9524 13.7037 12.0773 13.9319 12.2077L13.7417 12.55C13.519 12.425 13.2854 12.3055 13.0572 12.1914L13.2311 11.8383ZM2.6642 11.9524L2.91412 12.2512C2.88152 12.2783 2.84893 12.3055 2.82176 12.3327C2.66421 12.4739 2.51209 12.6206 2.37084 12.7781L2.0829 12.5119C2.23502 12.349 2.398 12.1914 2.56642 12.0393C2.59358 12.0121 2.62618 11.9795 2.6642 11.9524ZM40.5473 12.2512L40.9221 12.3544C40.8515 12.6097 40.77 12.8651 40.6831 13.115L40.3137 12.9846C40.4006 12.7456 40.4767 12.4957 40.5473 12.2512ZM14.9533 12.8162C15.0565 12.8814 15.1543 12.9466 15.2575 13.0172C15.3716 13.0933 15.4911 13.1747 15.6106 13.2617L15.3879 13.5822C15.2684 13.5007 15.1543 13.4192 15.0402 13.3432C14.9424 13.278 14.8446 13.2128 14.7468 13.1476L14.9533 12.8162ZM1.34946 13.479L1.68087 13.6854C1.55048 13.8973 1.43096 14.1255 1.32774 14.3537L0.969167 14.1961C1.08326 13.9462 1.21364 13.7072 1.34946 13.479ZM16.5614 13.9571C16.7569 14.1038 16.9634 14.2613 17.1861 14.4352L16.9471 14.7448C16.7244 14.571 16.5233 14.4189 16.3278 14.2722L16.5614 13.9571ZM39.8845 14.0549L40.2376 14.2179C40.129 14.4569 40.004 14.6959 39.879 14.9296L39.5368 14.7448C39.6617 14.5221 39.7813 14.2885 39.8845 14.0549ZM18.1152 15.1577C18.251 15.2609 18.3814 15.3696 18.5172 15.4728L18.7291 15.6413L18.4846 15.9455L18.2727 15.7771C18.1369 15.6739 18.0065 15.5652 17.8707 15.462L18.1152 15.1577ZM0.583432 15.337L0.963738 15.4294C0.903977 15.6738 0.855076 15.9238 0.82248 16.1791L0.436753 16.1248C0.46935 15.8586 0.518239 15.5924 0.583432 15.337ZM38.9392 15.7282L39.2597 15.9509C39.1076 16.1682 38.95 16.3856 38.787 16.592L38.4828 16.3475C38.6404 16.1465 38.7925 15.9401 38.9392 15.7282ZM19.6526 16.3693C19.8754 16.5431 20.0764 16.7007 20.272 16.8473L20.0329 17.157C19.8374 17.0103 19.6363 16.8528 19.4082 16.6789L19.6526 16.3693ZM37.7168 17.2113L37.9939 17.4884C37.8091 17.6731 37.6136 17.8578 37.4125 18.0317L37.1572 17.7383C37.3473 17.5645 37.5375 17.3906 37.7168 17.2113ZM0.751858 17.32C0.75729 17.5699 0.768147 17.8252 0.795311 18.086L0.404156 18.1241C0.376992 17.8578 0.360692 17.5862 0.360692 17.3254L0.751858 17.32ZM21.2064 17.5427C21.4237 17.7003 21.6411 17.847 21.8475 17.9882L21.6302 18.3142C21.4237 18.1729 21.2064 18.0208 20.9837 17.8633L21.2064 17.5427ZM36.2499 18.45L36.4781 18.7706C36.2608 18.9227 36.038 19.0694 35.8153 19.2106L35.6088 18.8792C35.8262 18.738 36.038 18.5967 36.2499 18.45ZM22.8254 18.613C23.0536 18.7488 23.2763 18.8792 23.4991 18.9987L23.3089 19.341C23.0862 19.2161 22.8526 19.0857 22.6244 18.9444L22.8254 18.613ZM0.980034 19.2215C1.03436 19.466 1.09955 19.7159 1.17018 19.9658L0.795311 20.0744C0.719254 19.8191 0.654061 19.5583 0.5943 19.303L0.980034 19.2215ZM34.5929 19.4279L34.7613 19.7811C34.5223 19.8952 34.2778 20.0038 34.0333 20.1016L33.8866 19.7376C34.1257 19.6398 34.3593 19.5366 34.5929 19.4279ZM24.5368 19.5203C24.7758 19.6289 25.0148 19.7322 25.2485 19.8245L25.1072 20.1885C24.8681 20.0962 24.6182 19.9875 24.3792 19.8789L24.5368 19.5203ZM32.7946 20.1233L32.9087 20.4982C32.6534 20.5743 32.398 20.6395 32.1373 20.6992L32.0503 20.3189C32.3003 20.2591 32.5502 20.194 32.7946 20.1233ZM26.3404 20.194C26.3785 20.2048 26.4219 20.2157 26.46 20.2266C26.6664 20.2809 26.8783 20.3352 27.0847 20.3787L27.0033 20.759C26.7859 20.7155 26.5686 20.6612 26.3513 20.6014C26.3079 20.5906 26.2698 20.5797 26.2264 20.5688L26.3404 20.194ZM30.9149 20.5199L30.9638 20.9057C30.703 20.9383 30.4368 20.9654 30.1706 20.9817L30.1434 20.5905C30.4042 20.5797 30.6595 20.5525 30.9149 20.5199ZM28.2256 20.558C28.481 20.5851 28.7363 20.6014 28.9917 20.6123L28.9754 21.0034C28.7092 20.9926 28.4429 20.9763 28.1822 20.9491L28.2256 20.558ZM1.55591 21.0523C1.6537 21.286 1.75693 21.525 1.87102 21.7532L1.51788 21.927C1.40379 21.688 1.2897 21.4435 1.19191 21.199L1.55591 21.0523ZM2.42516 22.7691C2.56098 22.9864 2.70224 23.2037 2.84893 23.4102L2.52839 23.6384C2.37627 23.4211 2.22958 23.1983 2.08833 22.9756L2.42516 22.7691ZM3.56606 24.3229C3.73447 24.5185 3.91376 24.7086 4.09304 24.8825L3.81597 25.1596C3.63125 24.9748 3.44654 24.7793 3.27269 24.5782L3.56606 24.3229ZM4.95143 25.6485C5.15244 25.8061 5.35889 25.9636 5.56534 26.1157L5.33715 26.4308C5.11984 26.2733 4.9134 26.1103 4.70695 25.9473L4.95143 25.6485ZM6.52694 26.7731C6.73882 26.9089 6.96157 27.0447 7.18975 27.1751L6.99416 27.512C6.76599 27.3762 6.53781 27.2403 6.3205 27.1045L6.52694 26.7731ZM8.21112 27.7347C8.43386 27.8488 8.66748 27.9683 8.90652 28.0824L8.73811 28.4355C8.49906 28.3215 8.26001 28.2019 8.03184 28.0824L8.21112 27.7347ZM9.97136 28.5659C10.1995 28.6637 10.444 28.767 10.6885 28.8702L10.5364 29.2287C10.2865 29.1255 10.042 29.0223 9.8138 28.9191L9.97136 28.5659ZM11.7751 29.3048C12.0032 29.3917 12.2423 29.4841 12.503 29.5873L12.3618 29.9513C12.101 29.8535 11.862 29.7612 11.6284 29.6688L11.7751 29.3048ZM13.6005 30.0002L14.3339 30.2718L14.1981 30.6359L13.4647 30.3642L13.6005 30.0002ZM15.4368 30.6847C15.703 30.7825 15.942 30.8749 16.1702 30.9672L16.029 31.3313C15.8008 31.2443 15.5617 31.152 15.301 31.0487L15.4368 30.6847ZM17.2622 31.4073C17.5121 31.5105 17.7566 31.6137 17.9848 31.7115L17.8272 32.0701C17.599 31.9723 17.3546 31.8691 17.1101 31.7659L17.2622 31.4073ZM19.0659 32.2005C19.2995 32.3146 19.5386 32.4341 19.7722 32.5591L19.5875 32.9068C19.3593 32.7872 19.1257 32.6677 18.8975 32.5591L19.0659 32.2005ZM20.8044 33.1404C21.0326 33.2762 21.2553 33.4174 21.4726 33.5641L21.2553 33.8901C21.0434 33.7488 20.8207 33.613 20.598 33.4772L20.8044 33.1404ZM22.4451 34.2432C22.657 34.4008 22.8689 34.5638 23.0699 34.7322L22.8254 35.0364C22.6298 34.8734 22.4234 34.7159 22.2115 34.5583L22.4451 34.2432ZM23.9663 35.5145C24.1619 35.6992 24.352 35.884 24.5313 36.0687L24.2488 36.3403C24.075 36.1556 23.8848 35.9763 23.6947 35.797L23.9663 35.5145ZM25.3245 36.9542C25.4929 37.1607 25.6559 37.3725 25.808 37.5844L25.4929 37.8126C25.3462 37.6062 25.1887 37.4051 25.0203 37.2041L25.3245 36.9542ZM26.46 38.5895C26.5958 38.8231 26.7207 39.0567 26.8348 39.2958L26.4817 39.4642C26.373 39.236 26.2535 39.0078 26.1231 38.7851L26.46 38.5895ZM27.2858 40.3986C27.3727 40.654 27.4433 40.9093 27.5085 41.1646L27.1282 41.257C27.0684 41.0125 26.9978 40.7626 26.9163 40.5236L27.2858 40.3986ZM27.7041 42.3544C27.7258 42.6098 27.7421 42.8651 27.7421 43.1205L27.7421 43.1585L27.351 43.1585L27.351 43.1205C27.351 42.8814 27.3401 42.6315 27.3184 42.3925L27.7041 42.3544ZM27.2586 44.294L27.6443 44.3537C27.6063 44.6145 27.552 44.8807 27.4922 45.1415L27.1119 45.0491C27.1717 44.7992 27.2206 44.5439 27.2586 44.294ZM26.7642 46.1357L27.1282 46.2769C27.0304 46.5214 26.9218 46.7659 26.8077 47.0049L26.4545 46.8311C26.5686 46.6083 26.6718 46.3693 26.7642 46.1357ZM25.8895 47.8416L26.2209 48.0535C26.0797 48.2708 25.933 48.4935 25.7754 48.7108L25.4603 48.4827C25.6124 48.2653 25.7537 48.0535 25.8895 47.8416ZM24.7378 49.3845L25.0366 49.6399C24.8682 49.8354 24.6943 50.031 24.5096 50.2266L24.2216 49.9604C24.4009 49.7702 24.5748 49.5747 24.7378 49.3845ZM23.4013 50.7862L23.6729 51.0687C23.4882 51.2425 23.2926 51.4272 23.097 51.6065L22.8363 51.3186C23.0264 51.1393 23.2166 50.96 23.4013 50.7862ZM21.9507 52.0846L22.2006 52.3834C22.0105 52.5464 21.804 52.7148 21.5922 52.8832L21.3477 52.579C21.5596 52.4106 21.7606 52.2422 21.9507 52.0846ZM20.4295 53.3124L20.6686 53.6221C20.4621 53.7851 20.2557 53.9426 20.0492 54.1056L19.8102 53.796C20.0221 53.633 20.2285 53.4754 20.4295 53.3124ZM18.8866 54.5131L19.1257 54.8228C18.9192 54.9858 18.7128 55.1433 18.5063 55.3009L18.2673 54.9912C18.4683 54.8336 18.6802 54.6761 18.8866 54.5131ZM17.3491 55.7409L17.6045 56.0397C17.4089 56.2081 17.2133 56.382 17.0232 56.5558L16.7569 56.2679C16.9525 56.0886 17.1481 55.9148 17.3491 55.7409ZM15.9094 57.0937L16.1865 57.3653C16.0018 57.55 15.8279 57.7402 15.6541 57.9303L15.3661 57.6696C15.54 57.474 15.7193 57.2838 15.9094 57.0937ZM14.5947 58.5714L14.8989 58.8159C14.7359 59.0169 14.5784 59.2288 14.4263 59.4298L14.1112 59.2016C14.2687 58.9897 14.4263 58.7779 14.5947 58.5714ZM13.4484 60.185L13.7798 60.3914C13.6439 60.6142 13.5135 60.8369 13.394 61.0597L13.0518 60.8749C13.1713 60.6468 13.3071 60.4131 13.4484 60.185ZM12.5302 61.9452L12.8888 62.0973C12.7856 62.3364 12.6986 62.5808 12.6171 62.8144L12.2477 62.6895C12.3292 62.4505 12.427 62.1951 12.5302 61.9452ZM11.9489 63.8576L12.3346 63.9282C12.2857 64.1835 12.2531 64.4334 12.2314 64.6833L11.8402 64.6507C11.862 64.39 11.8946 64.1238 11.9489 63.8576ZM12.2368 65.8242C12.2586 66.0741 12.302 66.3295 12.3564 66.574L11.9761 66.6609C11.9163 66.4001 11.8783 66.1339 11.8511 65.8623L12.2368 65.8242Z" fill="black"/>
<path d="M12.7041 67.655C12.753 67.7691 12.8073 67.8832 12.8616 67.9973L12.5139 68.1711C12.4542 68.0516 12.3944 67.9267 12.3455 67.8071L12.7041 67.655Z" fill="black"/>
<path d="M18.7291 81.9867C17.6316 82.4757 12.2151 69.2956 12.916 68.9805C13.6114 68.6709 19.8265 81.4978 18.7291 81.9867Z" fill="black"/>
<path d="M23.4937 70.2409L17.9413 79.0801L16.4473 75.7443L23.1188 69.3934L23.4937 70.2409Z" fill="black"/>
<path d="M6.79317 77.7056L17.0884 79.4658L15.5943 76.1246L6.41287 76.8635L6.79317 77.7056Z" fill="black"/>
<path d="M13.9808 70.6484L15.3227 67.9049L15.0511 67.3018L13.1007 69.1435L13.9808 70.6484Z" fill="black"/>
<path d="M13.4429 70.8875L10.5092 70.0562L10.2376 69.4532L12.9105 69.2304L13.4429 70.8875Z" fill="black"/>
<path d="M20.8805 74.158C20.5925 73.5169 20.511 72.9247 20.7012 72.8432C20.8913 72.7617 21.2716 73.2126 21.5596 73.8537C21.8475 74.4948 21.929 75.087 21.7389 75.1685C21.5487 75.25 21.163 74.799 20.8805 74.158Z" fill="black"/>
<path d="M19.8374 75.5433C19.5494 74.9023 19.4679 74.3101 19.6581 74.2286C19.8482 74.1471 20.2285 74.598 20.5165 75.2391C20.8044 75.8802 20.8859 76.4723 20.6958 76.5538C20.511 76.6408 20.1253 76.1844 19.8374 75.5433Z" fill="black"/>
<path d="M11.2807 78.4444C10.9927 77.8033 10.607 77.347 10.4223 77.4339C10.2321 77.5154 10.3136 78.1076 10.6016 78.7486C10.8895 79.3897 11.2752 79.8461 11.46 79.7592C11.6501 79.6777 11.5686 79.0909 11.2807 78.4444Z" fill="black"/>
<path d="M13.0083 78.5968C12.7204 77.9557 12.3347 77.4993 12.1499 77.5862C11.9598 77.6677 12.0413 78.2599 12.3292 78.901C12.6172 79.5421 13.0029 79.9984 13.1876 79.9115C13.3778 79.83 13.2963 79.2378 13.0083 78.5968Z" fill="black"/>
<path d="M37.4126 2.16232C37.4126 1.02142 38.3361 0.0978338 39.477 0.0978339C40.6179 0.097834 41.5415 1.02142 41.5415 2.16232C41.5415 3.30321 40.6179 4.22678 39.477 4.22678C38.3361 4.23222 37.4126 3.30321 37.4126 2.16232Z" fill="black"/>
<path d="M39.477 -5.93168e-05C40.6723 -5.92123e-05 41.6393 0.972422 41.6393 2.16221C41.6393 3.35743 40.6668 4.32446 39.477 4.32446C38.2818 4.32446 37.3148 3.352 37.3148 2.16221C37.3148 0.972422 38.2872 -5.94209e-05 39.477 -5.93168e-05ZM39.477 4.13433C40.5636 4.13433 41.4437 3.24876 41.4437 2.16763C41.4437 1.0865 40.5582 0.200952 39.477 0.200952C38.3959 0.200952 37.5103 1.0865 37.5103 2.16763C37.5103 3.24876 38.3905 4.13433 39.477 4.13433Z" fill="black"/>
<path d="M38.4176 2.16222C38.4176 1.57548 38.8957 1.09738 39.4825 1.09738C40.0692 1.09738 40.5473 1.57548 40.5473 2.16222C40.5473 2.74897 40.0692 3.22705 39.4825 3.22705C38.8903 3.22705 38.4176 2.74897 38.4176 2.16222Z" fill="black"/>
</svg>
