<svg width="50" height="50" viewBox="0 0 50 50" fill="none" xmlns="http://www.w3.org/2000/svg">
<circle cx="25" cy="25" r="25" fill="#CF0D14"/>
<path d="M21.6666 34.0833H29.3333C33.1858 34.0833 33.8758 32.5404 34.0771 30.6621L34.7958 22.9954C35.0546 20.6571 34.3837 18.75 30.2916 18.75H20.7083C16.6162 18.75 15.9454 20.6571 16.2041 22.9954L16.9229 30.6621C17.1241 32.5404 17.8141 34.0833 21.6666 34.0833Z" stroke="white" stroke-width="1.7" stroke-miterlimit="10" stroke-linecap="round" stroke-linejoin="round"/>
<path d="M21.6667 18.7501V17.9834C21.6667 16.2872 21.6667 14.9167 24.7333 14.9167H26.2667C29.3333 14.9167 29.3333 16.2872 29.3333 17.9834V18.7501" stroke="white" stroke-width="1.7" stroke-miterlimit="10" stroke-linecap="round" stroke-linejoin="round"/>
<path d="M27.4167 25.4583V26.4167C27.4167 26.4262 27.4167 26.4263 27.4167 26.4358C27.4167 27.4804 27.4071 28.3333 25.5 28.3333C23.6025 28.3333 23.5833 27.49 23.5833 26.4454V25.4583C23.5833 24.5 23.5833 24.5 24.5417 24.5H26.4583C27.4167 24.5 27.4167 24.5 27.4167 25.4583Z" stroke="white" stroke-width="1.7" stroke-miterlimit="10" stroke-linecap="round" stroke-linejoin="round"/>
<path d="M34.7479 23.5417C32.5342 25.1517 30.0042 26.1101 27.4167 26.4359" stroke="white" stroke-width="1.7" stroke-miterlimit="10" stroke-linecap="round" stroke-linejoin="round"/>
<path d="M16.5108 23.8005C18.6671 25.2764 21.1012 26.1676 23.5833 26.4455" stroke="white" stroke-width="1.7" stroke-miterlimit="10" stroke-linecap="round" stroke-linejoin="round"/>
</svg>
