<svg width="50" height="50" viewBox="0 0 50 50" fill="none" xmlns="http://www.w3.org/2000/svg">
<circle cx="25" cy="25" r="25" fill="#CF0D14"/>
<path d="M15.8171 17.4083C16.5837 14.0924 21.5766 14.0924 22.3337 17.4083C22.7841 19.3537 21.5479 21.002 20.4746 22.0274C19.6887 22.7749 18.4525 22.7653 17.6666 22.0274C16.6029 21.002 15.3666 19.3537 15.8171 17.4083Z" stroke="white" stroke-width="1.7"/>
<path d="M28.2754 28.9083C29.0421 25.5924 34.0637 25.5924 34.8304 28.9083C35.2808 30.8537 34.0446 32.502 32.9616 33.5274C32.1758 34.2749 30.93 34.2653 30.1441 33.5274C29.0612 32.502 27.825 30.8537 28.2754 28.9083Z" stroke="white" stroke-width="1.7"/>
<path d="M25.3333 17.7917H27.9016C29.6746 17.7917 30.4987 19.9863 29.1666 21.1555L21.5096 27.8542C20.1775 29.0138 21.0016 31.2084 22.765 31.2084H25.3333" stroke="white" stroke-width="1.7" stroke-linecap="round" stroke-linejoin="round"/>
<path d="M19.0909 18.2709H19.102" stroke="white" stroke-width="1.7" stroke-linecap="round" stroke-linejoin="round"/>
<path d="M31.5493 29.7709H31.5603" stroke="white" stroke-width="1.7" stroke-linecap="round" stroke-linejoin="round"/>
</svg>
