<svg width="42" height="82" viewBox="0 0 42 82" fill="none" xmlns="http://www.w3.org/2000/svg">
<path d="M1.3658 77.0777C1.31691 76.9528 1.27344 76.8278 1.22998 76.7028L1.59941 76.5779C1.64287 76.6974 1.68634 76.8224 1.7298 76.9419L1.3658 77.0777Z" fill="black"/>
<path d="M0.909423 75.5565C0.849662 75.3012 0.800773 75.035 0.762743 74.7742L1.14847 74.7144C1.1865 74.9698 1.2354 75.2197 1.28973 75.4696L0.909423 75.5565ZM0.64322 73.5844C0.632355 73.378 0.626923 73.1661 0.626923 72.9542C0.626923 72.8999 0.626923 72.8401 0.626923 72.7858L1.01809 72.7912C1.01809 72.8455 1.01809 72.8999 1.01809 72.9542C1.01809 73.1552 1.02352 73.3617 1.03438 73.5627L0.64322 73.5844ZM34.4843 71.6666C34.2235 71.6612 33.9573 71.6503 33.6856 71.6286L33.7182 71.2374C33.979 71.2592 34.2344 71.2755 34.4843 71.2755V71.6666ZM1.08871 71.6394L0.697544 71.596C0.724708 71.3352 0.762741 71.069 0.811637 70.8082L1.19736 70.8734C1.1539 71.1288 1.11587 71.3841 1.08871 71.6394ZM35.6849 71.6014L35.636 71.2157C35.8914 71.1831 36.1467 71.1396 36.3858 71.0853L36.4727 71.4656C36.2173 71.5199 35.9511 71.5688 35.6849 71.6014ZM32.5067 71.4602C32.2514 71.4113 31.9906 71.3515 31.7298 71.2809L31.8276 70.9006C32.0775 70.9658 32.3329 71.0255 32.5774 71.0744L32.5067 71.4602ZM37.6244 71.0962L37.4723 70.7376C37.7059 70.6398 37.9341 70.5257 38.1514 70.4008L38.347 70.743C38.1134 70.8734 37.8744 70.9929 37.6244 71.0962ZM30.5889 70.9332C30.3445 70.8463 30.0946 70.7539 29.8446 70.6507L29.9913 70.2867C30.2304 70.3845 30.4748 70.4768 30.7139 70.5637L30.5889 70.9332ZM28.7689 70.1617C28.5353 70.0476 28.2963 69.9227 28.0681 69.7923L28.2583 69.45C28.481 69.575 28.7146 69.6945 28.9428 69.8086L28.7689 70.1617ZM39.3358 70.0476L39.0859 69.7488C39.1185 69.7217 39.1511 69.6945 39.1782 69.6673C39.3358 69.5261 39.4879 69.3794 39.6292 69.2219L39.9171 69.4881C39.765 69.651 39.602 69.8086 39.4336 69.9607C39.4064 69.9879 39.3738 70.0205 39.3358 70.0476ZM1.45271 69.7488L1.07785 69.6456C1.14847 69.3903 1.22996 69.1349 1.31689 68.885L1.68632 69.0154C1.5994 69.2544 1.52333 69.5043 1.45271 69.7488ZM27.0467 69.1838C26.9435 69.1186 26.8457 69.0534 26.7425 68.9828C26.6284 68.9067 26.5089 68.8252 26.3894 68.7383L26.6121 68.4178C26.7316 68.4993 26.8457 68.5808 26.9598 68.6568C27.0576 68.722 27.1554 68.7872 27.2532 68.8524L27.0467 69.1838ZM40.6505 68.521L40.3191 68.3146C40.4495 68.1027 40.569 67.8745 40.6723 67.6463L41.0308 67.8039C40.9167 68.0538 40.7863 68.2928 40.6505 68.521ZM25.4386 68.0429C25.243 67.8962 25.0366 67.7387 24.8138 67.5648L25.0529 67.2552C25.2756 67.429 25.4766 67.5811 25.6722 67.7278L25.4386 68.0429ZM2.11551 67.9451L1.76238 67.7821C1.87104 67.5431 1.99599 67.3041 2.12095 67.0704L2.46321 67.2552C2.33826 67.4779 2.21873 67.7115 2.11551 67.9451ZM23.8848 66.8423C23.749 66.739 23.6186 66.6304 23.4828 66.5272L23.2709 66.3587L23.5154 66.0545L23.7273 66.2229C23.8631 66.3261 23.9935 66.4348 24.1293 66.538L23.8848 66.8423ZM41.4166 66.663L41.0363 66.5706C41.096 66.3262 41.1449 66.0762 41.1775 65.8209L41.5632 65.8752C41.5306 66.1414 41.4818 66.4076 41.4166 66.663ZM3.06082 66.2718L2.74029 66.0491C2.89241 65.8318 3.04996 65.6144 3.21294 65.408L3.51718 65.6525C3.35963 65.8535 3.20751 66.0599 3.06082 66.2718ZM22.3473 65.6307C22.1246 65.4569 21.9236 65.2993 21.728 65.1527L21.967 64.843C22.1626 64.9897 22.3636 65.1472 22.5918 65.3211L22.3473 65.6307ZM4.28321 64.7887L4.00614 64.5116C4.19086 64.3269 4.38643 64.1422 4.58745 63.9683L4.84279 64.2617C4.65264 64.4355 4.46249 64.6094 4.28321 64.7887ZM41.2481 64.68C41.2427 64.4301 41.2318 64.1747 41.2047 63.914L41.5958 63.8759C41.623 64.1421 41.6393 64.4138 41.6393 64.6746L41.2481 64.68ZM20.7936 64.4573C20.5762 64.2997 20.3589 64.153 20.1525 64.0118L20.3698 63.6858C20.5762 63.8271 20.7936 63.9792 21.0163 64.1367L20.7936 64.4573ZM5.75007 63.55L5.52189 63.2294C5.73921 63.0773 5.96195 62.9306 6.1847 62.7894L6.39115 63.1208C6.17383 63.262 5.96195 63.4033 5.75007 63.55ZM19.1746 63.387C18.9464 63.2512 18.7237 63.1208 18.5009 63.0013L18.6911 62.659C18.9138 62.7839 19.1474 62.9143 19.3756 63.0556L19.1746 63.387ZM41.02 62.7785C40.9656 62.534 40.9004 62.2841 40.8298 62.0342L41.2047 61.9256C41.2807 62.1809 41.3459 62.4417 41.4057 62.697L41.02 62.7785ZM7.40708 62.5721L7.23867 62.2189C7.47771 62.1048 7.72219 61.9962 7.96666 61.8984L8.11335 62.2624C7.87431 62.3602 7.64069 62.4634 7.40708 62.5721ZM17.4632 62.4797C17.2242 62.3711 16.9851 62.2678 16.7515 62.1755L16.8928 61.8115C17.1318 61.9038 17.3817 62.0125 17.6208 62.1211L17.4632 62.4797ZM9.20535 61.8767L9.09126 61.5018C9.3466 61.4257 9.60195 61.3605 9.86272 61.3008L9.94964 61.6811C9.69973 61.7409 9.44982 61.806 9.20535 61.8767ZM15.6595 61.806C15.6215 61.7952 15.578 61.7843 15.54 61.7734C15.3336 61.7191 15.1217 61.6648 14.9152 61.6213L14.9967 61.241C15.2141 61.2845 15.4314 61.3388 15.6487 61.3986C15.6921 61.4094 15.7302 61.4203 15.7736 61.4312L15.6595 61.806ZM11.0851 61.4801L11.0362 61.0943C11.297 61.0617 11.5632 61.0346 11.8294 61.0183L11.8566 61.4095C11.5958 61.4203 11.3404 61.4475 11.0851 61.4801ZM13.7744 61.442C13.519 61.4149 13.2637 61.3986 13.0083 61.3877L13.0246 60.9966C13.2908 61.0074 13.557 61.0237 13.8178 61.0509L13.7744 61.442ZM40.4441 60.9477C40.3463 60.714 40.2431 60.475 40.129 60.2468L40.4821 60.073C40.5962 60.312 40.7103 60.5565 40.8081 60.801L40.4441 60.9477ZM39.5748 59.2309C39.439 59.0136 39.2977 58.7963 39.1511 58.5898L39.4716 58.3616C39.6237 58.5789 39.7704 58.8017 39.9117 59.0244L39.5748 59.2309ZM38.4339 57.6771C38.2655 57.4815 38.0862 57.2914 37.9069 57.1175L38.184 56.8404C38.3687 57.0252 38.5535 57.2207 38.7273 57.4218L38.4339 57.6771ZM37.0486 56.3515C36.8475 56.1939 36.6411 56.0364 36.4347 55.8843L36.6628 55.5692C36.8801 55.7267 37.0866 55.8897 37.293 56.0527L37.0486 56.3515ZM35.473 55.2269C35.2612 55.0911 35.0384 54.9553 34.8102 54.8249L35.0058 54.488C35.234 54.6238 35.4622 54.7597 35.6795 54.8955L35.473 55.2269ZM33.7889 54.2653C33.5661 54.1512 33.3325 54.0317 33.0935 53.9176L33.2619 53.5645C33.5009 53.6785 33.74 53.7981 33.9682 53.9176L33.7889 54.2653ZM32.0286 53.4341C31.8005 53.3363 31.556 53.233 31.3115 53.1298L31.4636 52.7712C31.7135 52.8745 31.958 52.9777 32.1862 53.0809L32.0286 53.4341ZM30.2249 52.6952C29.9968 52.6083 29.7577 52.5159 29.4969 52.4127L29.6382 52.0487C29.899 52.1465 30.138 52.2388 30.3716 52.3312L30.2249 52.6952ZM28.3995 51.9998L27.6661 51.7282L27.8019 51.3641L28.5353 51.6358L28.3995 51.9998ZM26.5632 51.3153C26.297 51.2175 26.058 51.1251 25.8298 51.0328L25.971 50.6687C26.1992 50.7557 26.4383 50.848 26.699 50.9513L26.5632 51.3153ZM24.7378 50.5927C24.4879 50.4895 24.2434 50.3863 24.0152 50.2885L24.1728 49.9299C24.401 50.0277 24.6454 50.1309 24.8899 50.2341L24.7378 50.5927ZM22.9341 49.7995C22.7005 49.6854 22.4614 49.5659 22.2278 49.4409L22.4125 49.0932C22.6407 49.2128 22.8743 49.3323 23.1025 49.4409L22.9341 49.7995ZM21.1956 48.8596C20.9674 48.7238 20.7447 48.5826 20.5273 48.4359L20.7447 48.1099C20.9565 48.2511 21.1793 48.387 21.402 48.5228L21.1956 48.8596ZM19.5549 47.7568C19.343 47.5992 19.1311 47.4362 18.9301 47.2678L19.1746 46.9636C19.3702 47.1266 19.5766 47.2841 19.7885 47.4417L19.5549 47.7568ZM18.0337 46.4855C17.8381 46.3008 17.648 46.116 17.4687 45.9313L17.7512 45.6597C17.925 45.8444 18.1152 46.0237 18.3053 46.203L18.0337 46.4855ZM16.6755 45.0458C16.5071 44.8393 16.3441 44.6275 16.192 44.4156L16.5071 44.1874C16.6537 44.3938 16.8113 44.5949 16.9797 44.7959L16.6755 45.0458ZM15.54 43.4105C15.4042 43.1769 15.2792 42.9433 15.1652 42.7042L15.5183 42.5358C15.6269 42.764 15.7465 42.9922 15.8769 43.2149L15.54 43.4105ZM14.7142 41.6014C14.6273 41.346 14.5567 41.0907 14.4915 40.8354L14.8718 40.743C14.9315 40.9875 15.0022 41.2374 15.0837 41.4764L14.7142 41.6014ZM14.2959 39.6456C14.2742 39.3902 14.2579 39.1349 14.2579 38.8795V38.8415H14.649V38.8795C14.649 39.1186 14.6599 39.3685 14.6816 39.6075L14.2959 39.6456ZM14.7414 37.706L14.3557 37.6463C14.3937 37.3855 14.448 37.1193 14.5078 36.8585L14.8881 36.9509C14.8283 37.2008 14.7794 37.4561 14.7414 37.706ZM15.2358 35.8643L14.8718 35.7231C14.9696 35.4786 15.0782 35.2341 15.1923 34.9951L15.5454 35.1689C15.4314 35.3917 15.3281 35.6307 15.2358 35.8643ZM16.1105 34.1584L15.7791 33.9465C15.9203 33.7292 16.067 33.5065 16.2246 33.2892L16.5397 33.5173C16.3875 33.7347 16.2463 33.9465 16.1105 34.1584ZM17.2622 32.6155L16.9634 32.3601C17.1318 32.1646 17.3057 31.969 17.4904 31.7734L17.7783 32.0396C17.5991 32.2298 17.4252 32.4253 17.2622 32.6155ZM18.5987 31.2138L18.3271 30.9313C18.5118 30.7575 18.7074 30.5728 18.9029 30.3935L19.1637 30.6814C18.9736 30.8607 18.7834 31.04 18.5987 31.2138ZM20.0493 29.9154L19.7994 29.6166C19.9895 29.4536 20.1959 29.2852 20.4078 29.1167L20.6523 29.421C20.4404 29.5894 20.2394 29.7578 20.0493 29.9154ZM21.5704 28.6876L21.3314 28.3779C21.5379 28.2149 21.7443 28.0573 21.9508 27.8944L22.1898 28.204C21.9779 28.367 21.7715 28.5246 21.5704 28.6876ZM23.1134 27.4869L22.8743 27.1772C23.0808 27.0142 23.2872 26.8567 23.4937 26.6991L23.7327 27.0088C23.5317 27.1664 23.3198 27.3239 23.1134 27.4869ZM24.6509 26.2591L24.3955 25.9603C24.5911 25.7919 24.7867 25.618 24.9768 25.4442L25.243 25.7321C25.0475 25.9114 24.8519 26.0852 24.6509 26.2591ZM26.0906 24.9063L25.8135 24.6347C25.9982 24.45 26.1721 24.2598 26.3459 24.0697L26.6338 24.3304C26.46 24.526 26.2807 24.7162 26.0906 24.9063ZM27.4053 23.4286L27.1011 23.1841C27.264 22.9831 27.4216 22.7712 27.5737 22.5702L27.8888 22.7984C27.7313 23.0103 27.5737 23.2221 27.4053 23.4286ZM28.5516 21.815L28.2202 21.6086C28.356 21.3858 28.4864 21.1631 28.606 20.9403L28.9482 21.1251C28.8287 21.3532 28.6929 21.5869 28.5516 21.815ZM29.4698 20.0548L29.1112 19.9027C29.2144 19.6636 29.3014 19.4192 29.3828 19.1856L29.7523 19.3105C29.6708 19.5495 29.573 19.8049 29.4698 20.0548ZM30.0511 18.1424L29.6654 18.0718C29.7143 17.8165 29.7469 17.5666 29.7686 17.3167L30.1597 17.3493C30.138 17.61 30.1054 17.8762 30.0511 18.1424ZM29.7631 16.1758C29.7414 15.9259 29.698 15.6705 29.6436 15.426L30.0239 15.3391C30.0837 15.5999 30.1217 15.8661 30.1489 16.1377L29.7631 16.1758Z" fill="black"/>
<path d="M29.2959 14.345C29.247 14.2309 29.1927 14.1168 29.1384 14.0027L29.4861 13.8289C29.5458 13.9484 29.6056 14.0733 29.6545 14.1929L29.2959 14.345Z" fill="black"/>
<path d="M23.2709 0.0132737C24.3684 -0.47568 29.7849 12.7043 29.084 13.0195C28.3886 13.3291 22.1735 0.502228 23.2709 0.0132737Z" fill="black"/>
<path d="M18.5063 11.7591L24.0587 2.91992L25.5527 6.25567L18.8812 12.6066L18.5063 11.7591Z" fill="black"/>
<path d="M35.2068 4.29442L24.9117 2.53418L26.4057 5.87536L35.5871 5.1365L35.2068 4.29442Z" fill="black"/>
<path d="M28.0192 11.3516L26.6773 14.0951L26.9489 14.6982L28.8993 12.8565L28.0192 11.3516Z" fill="black"/>
<path d="M28.5571 11.1125L31.4908 11.9438L31.7624 12.5468L29.0895 12.7696L28.5571 11.1125Z" fill="black"/>
<path d="M21.1195 7.84204C21.4075 8.48311 21.489 9.07529 21.2988 9.15678C21.1087 9.23828 20.7284 8.78735 20.4404 8.14628C20.1525 7.5052 20.071 6.91303 20.2611 6.83154C20.4513 6.75004 20.837 7.20097 21.1195 7.84204Z" fill="black"/>
<path d="M22.1626 6.45667C22.4506 7.09775 22.5321 7.68992 22.3419 7.77142C22.1518 7.85291 21.7715 7.40198 21.4835 6.76091C21.1956 6.11984 21.1141 5.52766 21.3043 5.44617C21.489 5.35924 21.8747 5.8156 22.1626 6.45667Z" fill="black"/>
<path d="M30.7193 3.55559C31.0073 4.19666 31.393 4.65302 31.5777 4.56609C31.7679 4.4846 31.6864 3.89243 31.3984 3.25135C31.1105 2.61028 30.7248 2.15392 30.54 2.24085C30.3499 2.32234 30.4314 2.90908 30.7193 3.55559Z" fill="black"/>
<path d="M28.9917 3.40325C29.2796 4.04432 29.6654 4.50068 29.8501 4.41375C30.0402 4.33226 29.9587 3.74007 29.6708 3.099C29.3829 2.45793 28.9971 2.00158 28.8124 2.0885C28.6223 2.17 28.7038 2.76217 28.9917 3.40325Z" fill="black"/>
<path d="M4.58747 79.8377C4.58747 80.9786 3.66389 81.9022 2.52299 81.9022C1.3821 81.9022 0.458527 80.9786 0.458527 79.8377C0.458527 78.6968 1.3821 77.7732 2.52299 77.7732C3.66389 77.7678 4.58747 78.6968 4.58747 79.8377Z" fill="black"/>
<path d="M2.52298 82.0001C1.32776 82.0001 0.360718 81.0276 0.360718 79.8378C0.360718 78.6426 1.33319 77.6755 2.52298 77.6755C3.7182 77.6755 4.68525 78.648 4.68525 79.8378C4.68525 81.0276 3.71277 82.0001 2.52298 82.0001ZM2.52298 77.8657C1.43641 77.8657 0.5563 78.7512 0.5563 79.8324C0.5563 80.9135 1.44185 81.799 2.52298 81.799C3.60411 81.799 4.48967 80.9135 4.48967 79.8324C4.48967 78.7512 3.60954 77.8657 2.52298 77.8657Z" fill="black"/>
<path d="M3.58237 79.8378C3.58237 80.4245 3.10428 80.9026 2.51753 80.9026C1.93079 80.9026 1.4527 80.4245 1.4527 79.8378C1.4527 79.251 1.93079 78.7729 2.51753 78.7729C3.10971 78.7729 3.58237 79.251 3.58237 79.8378Z" fill="black"/>
</svg>
