<svg width="77" height="80" viewBox="0 0 77 80" fill="none" xmlns="http://www.w3.org/2000/svg">
<path d="M62.9447 38.6175C63.0719 43.3519 61.7361 47.6835 59.2576 51.6737C57.2307 54.9367 54.5572 57.5742 51.273 59.5757C49.844 60.4471 48.8666 61.6153 48.6376 63.3199C48.4234 63.5701 48.5061 63.8733 48.5019 64.1553C48.4892 65.262 48.4934 66.3688 48.4913 67.4755C45.1562 67.467 41.8211 67.4607 38.484 67.4522C38.4882 63.3496 38.4924 59.2491 38.4861 55.1466C38.4861 55.03 38.6599 54.7777 38.3313 54.7734C36.9171 55.9628 35.3546 56.6137 33.4591 56.1939C31.1248 55.6766 29.753 54.1988 29.1933 51.9387C28.7099 49.9839 29.6894 47.6602 31.4216 46.4728C33.2195 45.241 35.5835 45.188 37.3815 46.3266C37.6825 46.5174 37.9221 46.8206 38.3695 46.8884C38.3695 44.3569 38.3716 41.8551 38.3674 39.3532C38.3674 39.1179 38.3271 38.8847 38.3059 38.6493C38.3631 38.6239 38.4204 38.5984 38.4776 38.573C41.2657 38.573 44.0537 38.573 46.9223 38.573C44.8933 42.0756 44.9548 44.5859 47.0326 46.5004C48.856 48.1817 51.6907 48.4192 53.7048 47.0474C54.7437 46.3414 55.4625 45.3831 55.8441 44.183C56.5035 42.1116 55.8484 40.3264 54.4639 38.6196C57.4046 38.6175 60.1736 38.6175 62.9447 38.6175Z" fill="#73D461"/>
<path d="M38.3059 38.6493C38.3271 38.8847 38.3652 39.1179 38.3674 39.3532C38.3716 41.855 38.3695 44.3569 38.3695 46.8884C37.9221 46.8205 37.6825 46.5152 37.3815 46.3265C35.5835 45.1901 33.2216 45.241 31.4216 46.4728C29.6915 47.658 28.712 49.9839 29.1933 51.9387C29.7509 54.2009 31.1248 55.6766 33.4591 56.1939C35.3546 56.6137 36.915 55.9628 38.3313 54.7734C38.3398 59.0011 38.3483 63.2266 38.3589 67.4543C38.1871 67.6197 37.9709 67.59 37.7631 67.59C34.6337 67.5857 31.5064 67.5815 28.377 67.5773C28.3664 66.4938 28.3388 65.4104 28.3452 64.3291C28.3579 62.2853 27.5416 60.7184 25.7713 59.6499C22.8602 57.8943 20.4072 55.6321 18.446 52.8525C15.9442 49.3075 14.4367 45.3873 14.0466 41.0515C13.9978 40.5002 13.9745 39.9448 13.9067 39.3977C13.8324 38.7956 14.019 38.5709 14.6742 38.5836C16.9195 38.626 19.1669 38.5984 21.4143 38.5984C21.6772 38.5984 21.9401 38.5984 22.3853 38.5984C20.9754 36.9086 20.4517 35.1043 21.0581 33.0817C21.4206 31.8732 22.1712 30.917 23.2058 30.2194C25.273 28.8264 28.0844 29.0809 29.8569 30.7813C31.9877 32.823 32.081 35.2909 30.0201 38.6493C32.8676 38.6493 35.5878 38.6493 38.3059 38.6493Z" fill="#64B5F4"/>
<path d="M25.8094 17.3456C25.8094 19.1562 25.8094 20.9139 25.8094 22.6715C25.8094 23.5451 25.8094 24.4165 25.8094 25.29C25.8094 25.5614 25.8285 25.8285 25.4257 25.8264C22.7669 25.82 20.1061 25.8243 17.2417 25.8243C18.658 24.2426 19.1838 22.5613 18.7746 20.6573C18.4969 19.3683 17.7887 18.3294 16.7329 17.5428C14.6508 15.9908 11.6932 16.188 9.82103 17.9923C7.68811 20.0489 7.64783 22.7351 9.70654 25.7077C9.60689 25.8942 9.42879 25.8243 9.28462 25.8243C6.85276 25.8285 4.41877 25.8158 1.98691 25.837C1.45898 25.8412 1.2512 25.7373 1.27452 25.1352C1.52682 18.8213 3.77423 13.3448 8.15668 8.79485C12.2889 4.5057 17.3477 2.04415 23.2822 1.41233C23.8334 1.35296 24.391 1.3466 24.9401 1.2724C25.6038 1.18123 25.8497 1.35508 25.8306 2.10139C25.7734 4.37424 25.8094 6.64921 25.8094 8.92206C25.8094 9.17861 25.8094 9.43303 25.8094 9.83587C27.2639 8.51075 28.8413 7.93405 30.6816 8.24996C31.9538 8.46834 33.0138 9.07684 33.8492 10.0585C35.5878 12.0981 35.5517 15.0537 33.7729 17.106C31.8202 19.3598 29.0872 19.4616 25.8094 17.3456Z" fill="#FB685C"/>
<path d="M62.9447 38.6176C60.1736 38.6176 57.4046 38.6176 54.466 38.6176C55.8505 40.3264 56.5056 42.1095 55.8462 44.181C55.4646 45.381 54.7437 46.3393 53.707 47.0453C51.6928 48.4171 48.8581 48.1796 47.0347 46.4983C44.9569 44.5838 44.8954 42.0735 46.9245 38.5709C44.0558 38.5709 41.2678 38.5709 38.4797 38.5709C38.4797 35.8019 38.4797 33.033 38.4797 30.1304C40.0338 31.4259 41.6727 32.0386 43.6 31.5955C44.8636 31.305 45.8856 30.6414 46.6658 29.6216C48.2665 27.5289 48.0948 24.5437 46.2736 22.6461C44.6961 21.0009 41.607 20.0086 38.6154 22.4786C38.3674 22.3429 38.4818 22.1055 38.4818 21.9189C38.4734 19.5676 38.503 17.2142 38.4585 14.8629C38.4458 14.1887 38.6981 14.0869 39.279 14.1123C45.6778 14.3943 51.2051 16.7202 55.7339 21.251C60.5064 26.0342 62.951 31.8287 62.9447 38.6176Z" fill="#FED92D"/>
<path d="M28.377 67.5774C31.5064 67.5816 34.6337 67.588 37.7631 67.5901C37.9709 67.5901 38.1871 67.6198 38.3589 67.4544H38.4225L38.4861 67.4523C41.8212 67.4608 45.1562 67.4671 48.4934 67.4756C48.5719 67.9314 48.3704 68.4148 48.6291 68.8537C48.5909 69.2417 48.5252 69.6318 48.5167 70.0198C48.4828 71.9789 47.1577 73.2998 45.1859 73.321C40.689 73.321 36.1899 73.321 31.693 73.321C29.7615 73.2849 28.3537 71.875 28.3473 69.952C28.3431 69.1611 28.3664 68.3682 28.377 67.5774Z" fill="#B3D1D6"/>
<path d="M31.6908 73.3209C36.1878 73.3209 40.6868 73.3209 45.1838 73.3209C45.1583 74.0842 45.2283 74.8644 45.0926 75.6065C44.7004 77.7479 43.0445 79.3868 40.8565 79.6031C39.2387 79.7621 37.5744 79.7833 35.9652 79.5882C33.4294 79.2787 31.7248 77.1542 31.6951 74.5867C31.6887 74.1648 31.693 73.7428 31.6908 73.3209Z" fill="#8D9CA8"/>
<path d="M72.5152 39.7646C71.5654 39.7646 70.6134 39.7773 69.6636 39.7625C68.6819 39.7455 68.0798 39.2345 68.0904 38.4607C68.101 37.6868 68.6989 37.1928 69.6869 37.1864C71.6142 37.1758 73.5414 37.1758 75.4687 37.1864C76.3888 37.1928 76.9783 37.6953 76.9995 38.4437C77.0207 39.1879 76.4355 39.7349 75.5238 39.7582C74.5231 39.7837 73.5202 39.7625 72.5152 39.7646Z" fill="#FEDA33"/>
<path d="M70.6176 18.5732C71.2219 18.639 71.6481 18.9082 71.8452 19.4658C72.0488 20.0404 71.877 20.5726 71.3958 20.8631C69.4961 22.0037 67.5773 23.1126 65.6352 24.1769C65.0288 24.5098 64.4436 24.2702 64.0599 23.6829C63.7206 23.1613 63.8161 22.3896 64.3694 22.0588C66.2924 20.9076 68.2473 19.8072 70.1936 18.6962C70.3229 18.6178 70.4904 18.6072 70.6176 18.5732Z" fill="#FEDA31"/>
<path d="M57.0357 4.9679C58.0194 5.00394 58.5961 6.01103 58.1276 6.88455C57.4809 8.09306 56.7706 9.26977 56.0858 10.4571C55.7296 11.0741 55.384 11.6974 55.0109 12.3038C54.5783 13.0077 53.8978 13.2112 53.2575 12.8571C52.6193 12.5052 52.4009 11.7928 52.7995 11.0825C53.8193 9.26553 54.8773 7.46973 55.9162 5.66332C56.177 5.2096 56.5862 5.01454 57.0357 4.9679Z" fill="#FEDA31"/>
<path d="M6.32271 58.2718C5.63789 58.2739 5.22657 57.9537 5.0612 57.4046C4.87462 56.7834 5.08452 56.2554 5.66545 55.9183C7.23864 55.0045 8.81394 54.0928 10.3892 53.1833C10.6861 53.0115 10.9765 52.825 11.2903 52.6893C11.9179 52.4179 12.4437 52.6193 12.8105 53.1557C13.2091 53.7409 13.1582 54.4257 12.59 54.7798C10.6649 55.9756 8.68249 57.0781 6.71707 58.206C6.58562 58.2802 6.40328 58.259 6.32271 58.2718Z" fill="#FEDA31"/>
<path d="M71.9237 57.0167C71.9406 57.922 70.9696 58.611 70.1342 58.1616C68.1858 57.1099 66.2776 55.9862 64.3864 54.835C63.7927 54.4745 63.7249 53.8385 64.0556 53.2215C64.3652 52.6448 65.0882 52.3925 65.6924 52.7296C67.5815 53.7812 69.4452 54.8774 71.3152 55.9629C71.7117 56.1919 71.8728 56.5757 71.9237 57.0167Z" fill="#FEDA31"/>
<path d="M4.42513 39.6989C3.42228 39.6989 2.41731 39.7095 1.41446 39.6946C0.551536 39.6819 -0.0145564 39.1603 0.000284964 38.4289C0.0151263 37.7038 0.59182 37.1695 1.44202 37.1631C3.44984 37.1483 5.45555 37.1483 7.46337 37.1631C8.3475 37.1695 8.94963 37.7483 8.91995 38.4946C8.89027 39.2239 8.33053 39.6861 7.43793 39.6967C6.43084 39.7073 5.42799 39.6989 4.42513 39.6989Z" fill="#FEDA31"/>
<path d="M37.2055 4.4506C37.2055 3.42018 37.1928 2.39189 37.2097 1.36147C37.2225 0.545197 37.7186 0.0151476 38.4373 0.000306235C39.1455 -0.0145351 39.72 0.511273 39.7328 1.31695C39.7624 3.40322 39.7646 5.48949 39.7328 7.57365C39.72 8.38568 39.1667 8.89241 38.4394 8.88605C37.7122 8.88181 37.2246 8.36448 37.2097 7.5376C37.1906 6.50931 37.2055 5.47889 37.2055 4.4506Z" fill="#FEDA31"/>
<path d="M48.627 68.8557C48.3683 68.4169 48.5697 67.9334 48.4913 67.4776C48.4934 66.3709 48.4892 65.2641 48.5019 64.1574C48.504 63.8754 48.4234 63.5722 48.6376 63.322C48.6333 65.1666 48.6312 67.0112 48.627 68.8557Z" fill="#A3D79A"/>
<path d="M38.484 67.4543L38.4204 67.4564H38.3568C38.3483 63.2287 38.3398 59.0032 38.3292 54.7755C38.6578 54.7798 38.484 55.0321 38.484 55.1487C38.4946 59.2491 38.4882 63.3517 38.484 67.4543Z" fill="#A3D79A"/>
</svg>
