<svg width="83" height="80" viewBox="0 0 83 80" fill="none" xmlns="http://www.w3.org/2000/svg">
<path d="M13.6532 66.4347C11.693 64.5019 9.73965 62.5645 7.7703 60.6409C7.43446 60.3142 7.50756 60.0126 7.67434 59.647C8.40085 58.0478 9.09538 56.4326 9.8356 54.8402C10.0344 54.4129 10.0458 54.1045 9.78991 53.6773C8.26606 51.1345 7.13059 48.4204 6.4018 45.5486C6.27157 45.0391 6.04539 44.7878 5.56791 44.6119C3.9184 44.0064 2.28717 43.3416 0.637669 42.7385C0.162465 42.5648 0.000251177 42.3227 0.00482045 41.8132C0.0299514 38.9208 0.0390925 36.0262 0.000253686 33.1339C-0.00888485 32.5307 0.22872 32.2817 0.738193 32.0944C2.36028 31.4958 3.96867 30.8561 5.59304 30.2621C6.02941 30.1022 6.26015 29.892 6.38809 29.4031C7.13288 26.5381 8.21351 23.8034 9.75793 21.2675C10.0229 20.8334 10.0366 20.4838 9.81504 20.0178C9.08624 18.4825 8.44198 16.9084 7.71089 15.3731C7.44131 14.8065 7.55783 14.4615 7.98505 14.0435C9.93385 12.1381 11.8529 10.2007 13.7812 8.27704C13.9639 8.56034 14.2769 8.65401 14.5557 8.77738C15.8739 9.36453 17.2332 9.874 18.5126 10.5343C19.3808 10.982 19.9474 10.7582 20.482 10.0773C21.59 9.77348 22.497 9.06296 23.5183 8.58319C25.4008 7.69903 27.3313 6.96566 29.3487 6.47218C29.8193 6.35795 30.0683 6.13177 30.2328 5.68398C30.8382 4.03448 31.4985 2.40782 32.0971 0.756026C32.273 0.269399 32.5334 0.120899 33.0361 0.125468C35.2247 0.148314 37.4134 0.134605 39.6021 0.134605C40.3355 2.06055 41.078 3.98193 41.7908 5.91473C41.921 6.26656 42.1518 6.38308 42.4693 6.46076C45.7638 7.29008 48.7795 8.77738 51.7404 10.3926C52.6999 10.9158 53.2002 10.8678 54.1118 10.0728C55.341 9.83059 56.3896 9.14063 57.5342 8.68828C57.8221 8.57405 58.1054 8.45753 58.3909 8.34101C58.5965 8.57404 58.7907 8.8185 59.0078 9.03783C60.6938 10.7285 62.3753 12.4214 64.082 14.0914C64.4384 14.441 64.5092 14.706 64.2807 15.1835C63.4857 16.8421 62.7637 18.5373 61.9892 20.2074C61.8362 20.5364 61.8727 20.7831 62.0441 21.0756C63.5656 23.6503 64.7651 26.3668 65.503 29.266C65.6515 29.8531 65.9531 30.1227 66.4671 30.3146C68.0092 30.8858 69.5445 31.4684 71.0752 32.0647C71.4887 32.2246 71.8908 32.3662 71.884 32.9899C71.852 35.9714 71.8634 38.9528 71.8771 41.9343C71.8794 42.3706 71.7332 42.5991 71.3174 42.7499C69.6405 43.3622 67.9773 44.0133 66.3003 44.6256C65.8845 44.7786 65.6606 45.0162 65.5464 45.4503C64.7879 48.3107 63.7096 51.0408 62.1811 53.5836C61.9435 53.9766 61.9572 54.3581 62.0852 54.8013C62.2428 55.3451 62.6883 55.7814 62.6541 56.3869C60.904 54.678 59.154 52.9713 57.404 51.2624C57.4428 51.187 57.4748 51.1071 57.5205 51.0385C60.2895 46.9628 61.6854 42.4437 61.7128 37.5409C61.7356 33.0676 60.6642 28.825 58.2561 25.0234C53.4241 17.395 46.5131 13.3558 37.3883 13.2781C36.0198 13.2096 34.6696 13.3763 33.3216 13.6048C20.8681 15.709 11.7707 27.2509 13.3745 40.3762C14.1924 47.0793 17.3726 52.5464 22.7506 56.6725C26.9589 59.9006 31.759 61.5182 37.0662 61.6233C38.7477 61.7535 40.4063 61.5342 42.049 61.2234C46.2595 60.4307 49.9561 58.5481 53.2574 55.8568C53.5452 56.1287 53.8377 56.396 54.121 56.6725C56.2822 58.7903 58.4412 60.9105 60.6002 63.0306C60.125 63.6315 59.6429 64.23 59.7434 65.0708C59.2317 65.5254 58.7222 65.9801 58.2105 66.4324C57.0841 65.9526 55.9555 65.4729 54.8315 64.9908C54.5505 64.8697 54.2855 64.7029 53.9588 64.7486C53.4104 64.3283 52.885 63.8074 52.1036 64.2574C48.9988 66.0395 45.782 67.5587 42.3048 68.4749C42.0604 68.5388 41.9142 68.6485 41.8251 68.8907C41.1008 70.8509 40.2304 72.7563 39.6112 74.7553C37.37 74.7645 35.1288 74.7553 32.8898 74.7942C32.4009 74.8033 32.2661 74.5429 32.1268 74.1819C31.4917 72.5187 30.8474 70.8578 30.21 69.1945C30.0752 68.8427 29.9381 68.5686 29.4949 68.4589C26.4243 67.6958 23.5343 66.4872 20.8293 64.8446C20.7379 64.7898 20.6145 64.7875 20.5071 64.7601C19.8514 64.0358 19.1889 63.9856 18.2728 64.4356C16.7763 65.169 15.2548 65.9047 13.6532 66.4347Z" fill="#FEE077"/>
<path d="M59.7526 65.0685C59.6498 64.2277 60.1318 63.6291 60.6093 63.0283C61.6008 62.135 62.5924 61.244 63.3554 60.1382C63.9312 59.6927 64.4543 59.197 64.8701 58.5984C65.2128 58.3699 65.5578 58.1437 65.9005 57.9153C66.3003 58.5984 67.02 58.9456 67.5614 59.4803C71.0981 62.9666 74.6461 66.4438 78.1941 69.921C78.3541 70.0787 78.5323 70.2226 78.715 70.3551C80.4788 71.6345 80.8991 73.2817 79.0806 75.0272C77.4836 76.5579 75.8752 78.0817 74.4176 79.7518C73.5746 79.3566 72.9966 78.6301 72.3523 78.0109C68.8317 74.6251 65.3476 71.2027 61.8499 67.794C61.5254 67.4788 61.2102 67.1498 60.7921 66.951C60.3557 66.3684 59.8554 65.8293 59.7526 65.0685Z" fill="#F0B984"/>
<path d="M65.9005 57.9153C65.5578 58.1438 65.2128 58.3699 64.8702 58.5984C64.0979 57.8947 63.3349 57.1819 62.6586 56.3823C62.6929 55.7769 62.2474 55.3382 62.0898 54.7968C61.9618 54.3536 61.9481 53.972 62.1857 53.5791C63.7164 51.0363 64.7948 48.3061 65.551 45.4458C65.6652 45.014 65.8891 44.7741 66.3049 44.621C67.9818 44.0065 69.6428 43.3553 71.322 42.7453C71.7378 42.5945 71.884 42.3638 71.8817 41.9297C71.868 38.9483 71.8566 35.9668 71.8886 32.9854C71.8954 32.3617 71.4933 32.2223 71.0798 32.0601C69.5491 31.4638 68.0115 30.8812 66.4717 30.3101C65.9576 30.1204 65.6561 29.8486 65.5076 29.2614C64.7696 26.3622 63.5702 23.6458 62.0486 21.071C61.875 20.7786 61.8407 20.5318 61.9938 20.2028C62.7683 18.5328 63.4902 16.8376 64.2853 15.1789C64.5138 14.7014 64.4429 14.4364 64.0865 14.0869C62.3799 12.4168 60.6984 10.7239 59.0124 9.03327C58.793 8.81394 58.5988 8.56949 58.3955 8.33646C58.4138 8.31589 58.4298 8.28619 58.4526 8.27477C60.2666 7.37462 60.2666 7.37462 61.6831 8.7911C63.4537 10.5571 65.2129 12.3323 66.9994 14.0823C67.3764 14.4501 67.4815 14.7471 67.2393 15.2566C66.522 16.7668 65.8868 18.3135 65.1786 19.8282C64.9181 20.3856 64.8907 20.8266 65.2288 21.3909C66.7024 23.8628 67.8013 26.497 68.4867 29.2957C68.6033 29.7732 68.8386 30.061 69.3275 30.237C70.9793 30.8355 72.6037 31.5141 74.26 32.0967C74.7946 32.2863 74.9408 32.5536 74.9363 33.0813C74.9157 35.976 74.9088 38.8729 74.9408 41.7675C74.9477 42.3615 74.7284 42.6014 74.196 42.7933C72.5671 43.3759 70.9678 44.0384 69.3412 44.6256C68.8546 44.8015 68.617 45.0871 68.4959 45.5623C67.7694 48.4386 66.627 51.1436 65.1078 53.691C64.8999 54.0383 64.8519 54.333 65.0369 54.7168C65.5167 55.7106 65.9531 56.7273 66.4077 57.7348C66.2409 57.7965 66.0696 57.8559 65.9005 57.9153Z" fill="#FED065"/>
<path d="M65.9006 57.9152C66.0696 57.8558 66.241 57.7964 66.4101 57.737C67.3011 57.6251 67.9705 57.9861 68.6056 58.6029C72.7933 62.6741 77.0039 66.7202 81.2076 70.7755C82.6812 72.1965 82.7063 73.3411 81.2922 74.785C79.846 76.2654 78.3975 77.7459 76.9354 79.2103C76.2225 79.9231 75.4069 80.2727 74.4177 79.7472C75.8753 78.0771 77.4837 76.5533 79.0806 75.0226C80.9015 73.2794 80.4788 71.6299 78.7151 70.3505C78.5323 70.218 78.3541 70.0741 78.1942 69.9164C74.6484 66.4392 71.1004 62.962 67.5615 59.4757C67.02 58.9433 66.3004 58.5984 65.9006 57.9152Z" fill="#E3A871"/>
<path d="M54.1118 10.0705C53.2002 10.8655 52.6999 10.9135 51.7404 10.3903C48.7818 8.77507 45.7638 7.29006 42.4693 6.45846C42.154 6.37849 41.921 6.26426 41.7908 5.91243C41.078 3.97963 40.3355 2.05825 39.6021 0.132302C40.4634 -0.112154 41.3407 0.0637637 42.2111 0.0294942C42.5813 0.0157864 42.6315 0.337919 42.732 0.602936C43.3466 2.21132 43.9886 3.80828 44.5712 5.42808C44.7836 6.0198 45.1081 6.31909 45.7295 6.47902C48.7087 7.2398 51.5142 8.42096 54.1118 10.0705Z" fill="#FED066"/>
<path d="M39.6204 74.753C40.2395 72.7539 41.1122 70.8485 41.8342 68.8883C41.9233 68.6484 42.0695 68.5388 42.314 68.4725C45.7912 67.5541 49.0102 66.0371 52.1128 64.2551C52.8941 63.8073 53.4173 64.3259 53.9679 64.7463C53.6298 65.3289 52.9855 65.4797 52.4555 65.7675C50.3102 66.935 48.0415 67.8146 45.6792 68.4245C45.0692 68.5822 44.7836 68.8769 44.5849 69.4298C44.0183 70.997 43.3923 72.5415 42.8212 74.1064C42.6407 74.6022 42.3802 74.8284 41.8296 74.7872C41.0962 74.737 40.356 74.7598 39.6204 74.753Z" fill="#FED065"/>
<path d="M20.4843 10.0751C19.952 10.7536 19.3831 10.9798 18.5149 10.532C17.2355 9.87175 15.8762 9.36456 14.5579 8.77513C14.2792 8.65176 13.9662 8.55809 13.7834 8.27479C14.1833 7.48202 14.7247 7.43176 15.4992 7.80873C17.1396 8.60835 18.8211 9.32572 20.4843 10.0751Z" fill="#FED067"/>
<path d="M13.6532 66.4346C15.2547 65.9046 16.7763 65.169 18.2818 64.4287C19.198 63.9787 19.8605 64.0289 20.5162 64.7532C18.6474 65.6053 16.7968 66.494 14.9029 67.2868C14.2198 67.577 14.0256 66.7956 13.6532 66.4346Z" fill="#FED066"/>
<path d="M59.7526 65.0685C59.8554 65.8293 60.3557 66.3684 60.7898 66.9465C60.5454 67.3988 60.2278 67.4765 59.7663 67.216C59.2637 66.9327 58.672 66.8162 58.2173 66.4301C58.7314 65.9778 59.2408 65.5231 59.7526 65.0685Z" fill="#FED067"/>
<path d="M37.0731 61.621C31.7659 61.5159 26.9658 59.8983 22.7575 56.6702C17.3795 52.5441 14.1993 47.077 13.3814 40.3739C11.7776 27.2486 20.875 15.7067 33.3286 13.6025C34.6765 13.3741 36.0244 13.2073 37.3952 13.2758C38.4416 13.4632 39.5039 13.5865 40.5297 13.8493C45.7547 15.1835 50.2097 17.7697 53.6938 21.9506C56.9105 25.8093 58.7794 30.2461 59.2043 35.206C59.5196 38.8888 59.1404 42.5351 57.7307 46.0375C54.9846 52.8594 50.1892 57.5497 43.3216 60.1702C41.3019 60.9401 39.1841 61.26 37.0731 61.621ZM38.076 18.9143C36.6847 18.8549 35.3025 18.8937 33.9294 19.1747C29.6412 20.0566 26.0634 22.1265 23.2122 25.4598C20.4158 28.7314 18.9673 32.5421 18.8188 36.7916C18.6589 41.3631 20.0137 45.5052 22.9563 49.0623C26.9156 53.8509 32.0217 56.1584 38.2428 56.003C39.1955 55.8774 40.1596 55.8134 41.0986 55.6169C45.1378 54.7785 48.5625 52.8571 51.3018 49.7546C55.2268 45.3087 56.6889 40.1203 55.75 34.315C55.0029 29.6932 52.7205 25.8756 49.04 22.9467C45.8415 20.4016 42.1884 19.0217 38.076 18.9143Z" fill="#8AC8FD"/>
<path d="M37.073 61.6209C39.184 61.2599 41.2996 60.9401 43.3215 60.1702C50.1891 57.5497 54.9846 52.857 57.7307 46.0374C59.1403 42.5351 59.5196 38.8888 59.2043 35.206C58.7794 30.2437 56.9082 25.8093 53.6938 21.9505C50.2097 17.7696 45.7547 15.1834 40.5297 13.8492C39.5039 13.5865 38.4415 13.4631 37.3952 13.2758C46.52 13.3534 53.4287 17.3927 58.263 25.0211C60.671 28.8204 61.7448 33.063 61.7197 37.5386C61.6945 42.4391 60.2964 46.9604 57.5274 51.0362C57.4794 51.1047 57.4497 51.1847 57.4086 51.2601C56.9928 51.8244 56.577 52.391 56.1612 52.9553C55.1993 53.924 54.3197 54.9772 53.2642 55.8568C49.9607 58.5481 46.2664 60.4329 42.0558 61.2234C40.4132 61.5318 38.7545 61.7511 37.073 61.6209Z" fill="#62B7FD"/>
<path d="M53.2665 55.8545C54.3197 54.9749 55.1993 53.924 56.1634 52.953C56.9174 53.6772 57.6873 54.3832 58.4184 55.128C60.061 56.8003 61.8019 58.3767 63.3555 60.1359C62.5924 61.2439 61.5986 62.1349 60.6093 63.026C58.4503 60.9058 56.2914 58.7857 54.1301 56.6678C53.8468 56.3937 53.5544 56.1264 53.2665 55.8545Z" fill="#A79BA6"/>
<path d="M63.3554 60.1382C61.8019 58.379 60.0587 56.8027 58.4183 55.1303C57.6872 54.3855 56.9173 53.6796 56.1634 52.9553C56.5792 52.3887 56.995 51.8244 57.4108 51.2601C59.1608 52.969 60.9109 54.6757 62.6609 56.3846C63.3371 57.1842 64.1002 57.8947 64.8724 58.6007C64.452 59.197 63.9289 59.6927 63.3554 60.1382Z" fill="#847783"/>
<path d="M38.076 18.9143C42.1884 19.0217 45.8415 20.4016 49.0423 22.949C52.7205 25.8802 55.0029 29.6955 55.7522 34.3173C56.6912 40.1226 55.2268 45.311 51.304 49.7569C48.5648 52.8594 45.1401 54.7808 41.1009 55.6192C40.1619 55.8134 39.1978 55.8797 38.2451 56.0053C37.5597 55.8728 36.8697 55.7495 36.1866 55.601C31.7773 54.6528 28.1721 52.4162 25.362 48.8887C22.8832 45.7748 21.5535 42.2153 21.373 38.272C21.2063 34.5778 22.0653 31.0914 24.0072 27.9043C26.2827 24.1712 29.4629 21.5393 33.5776 20.0178C35.0397 19.4809 36.5522 19.1885 38.076 18.9143ZM26.1228 36.6454C26.1159 37.7237 26.5066 38.4228 27.1098 39.0259C28.9375 40.8514 30.7652 42.6768 32.5952 44.5022C34.3132 46.2157 35.7091 46.2225 37.418 44.4976C40.893 40.9907 44.3588 37.4724 47.8291 33.9609C47.9296 33.8604 48.0393 33.7667 48.1215 33.6525C48.5853 33.0174 48.8755 32.3228 48.7407 31.5186C48.5511 30.3832 47.9068 29.6292 46.801 29.2728C45.6701 28.9073 44.7106 29.2614 43.927 30.0496C41.142 32.8414 38.3707 35.6492 35.6269 38.4822C35.1243 39.0008 34.8433 38.978 34.3635 38.4685C33.2166 37.2508 32.0309 36.0628 30.8086 34.9182C29.9381 34.1026 28.9146 33.8307 27.754 34.3584C26.6734 34.8496 26.2347 35.7292 26.1228 36.6454Z" fill="#EBEEF0"/>
<path d="M38.076 18.9143C36.5521 19.1885 35.0397 19.4809 33.5775 20.0224C29.4629 21.5439 26.2827 24.1735 24.0072 27.9089C22.0675 31.0937 21.2062 34.5801 21.373 38.2766C21.5512 42.2199 22.8831 45.7793 25.362 48.8933C28.1721 52.4208 31.7772 54.6551 36.1866 55.6055C36.8697 55.7518 37.5596 55.8751 38.245 56.0099C32.024 56.1653 26.9201 53.8578 22.9585 49.0669C20.0159 45.5097 18.6611 41.3677 18.8211 36.7962C18.9696 32.5467 20.418 28.736 23.2144 25.4644C26.0656 22.1288 29.6411 20.0612 33.9316 19.1793C35.3024 18.8938 36.6846 18.8549 38.076 18.9143Z" fill="#D0D1D6"/>
<path d="M26.1227 36.6454C26.2347 35.7292 26.6756 34.8497 27.7562 34.3585C28.9168 33.8307 29.9426 34.1026 30.8108 34.9182C32.0331 36.0628 33.2165 37.2508 34.3657 38.4685C34.8455 38.978 35.1265 39.0008 35.6291 38.4822C38.3729 35.6493 41.1419 32.8415 43.9292 30.0496C44.7151 29.2614 45.6723 28.9073 46.8032 29.2729C47.909 29.6316 48.5533 30.3832 48.7429 31.5187C48.8777 32.3229 48.5852 33.0151 48.1237 33.6525C48.0415 33.7667 47.9296 33.8604 47.8313 33.9609C44.361 37.4747 40.8975 40.9908 37.4202 44.4977C35.7113 46.2226 34.3131 46.2157 32.5974 44.5022C30.7674 42.6791 28.9397 40.8537 27.112 39.026C26.5065 38.4228 26.1159 37.7237 26.1227 36.6454Z" fill="#8AC9FD"/>
</svg>
