<svg width="69" height="80" viewBox="0 0 69 80" fill="none" xmlns="http://www.w3.org/2000/svg">
<path d="M0.0609943 76.0139C0.0903879 71.4552 -0.160772 66.8911 0.183935 62.3431C0.731725 55.107 7.07273 48.798 14.3116 48.1888C14.9395 48.1353 15.5621 47.983 16.1981 48.1059C16.2408 48.5549 16.0458 48.953 15.9015 49.3538C15.1827 51.3499 14.4505 53.3407 13.7184 55.3314C13.4538 56.0556 13.5206 56.5633 14.4398 56.6595C15.2575 56.745 16.0752 56.8679 16.8849 57.0095C17.6544 57.1432 17.8308 57.6001 17.3044 58.1719C16.7646 58.7545 16.1874 59.3129 15.5648 59.8046C14.5654 60.5956 14.5146 60.9884 15.359 61.8809C17.5235 64.1682 19.7387 66.4182 21.8123 68.7884C22.793 69.9107 23.8324 70.9849 24.8372 72.0778C25.9969 73.339 27.0176 74.7526 28.4072 75.7974C28.5274 75.7974 28.645 75.7974 28.7652 75.7974C29.4974 75.3618 29.9276 74.6377 30.4861 74.0311C34.2244 69.9908 37.9841 65.9692 41.7465 61.9503C42.6363 61.0017 42.6363 60.4887 41.5461 59.7191C40.9101 59.2702 40.3864 58.7224 39.868 58.1666C39.3389 57.6001 39.5206 57.1405 40.2902 57.0069C41.1025 56.8652 41.9175 56.7423 42.7352 56.6568C43.6571 56.5606 43.7159 56.0476 43.454 55.3261C43.0211 54.1423 42.5695 52.9666 42.182 51.7695C41.7866 50.5456 41.1292 49.4046 40.9823 48.1006C42.134 48.0579 43.2669 48.1754 44.3919 48.4266C44.3812 48.774 44.6485 48.9477 44.8462 49.1668C47.684 52.2638 49.0602 55.9701 49.1617 60.1173C49.2579 63.9785 49.2151 67.8451 49.1697 71.7064C49.1403 74.2583 47.3206 75.9978 44.7847 76.0005C39.0343 76.0058 33.2838 76.0005 27.5334 76.0032C18.3786 76.0058 9.22111 76.0085 0.0609943 76.0139Z" fill="#58595B"/>
<path d="M22.5872 40.7816C20.9118 41.1102 19.3539 41.7756 17.8121 42.4837C14.7926 43.8679 12.1925 43.3041 10.0148 40.7949C1.43449 30.9107 2.10787 16.1123 11.4871 6.97623C15.3243 3.2379 19.8803 0.995972 25.1204 0.247771C37.1558 -1.47576 48.9934 5.92876 52.363 18.2153C54.0063 24.2116 53.3169 30.0689 50.6127 35.6778C48.5952 37.3559 47.0026 39.3359 46.1769 41.8665C43.951 43.4858 41.6236 43.6381 39.1625 42.4062C37.7116 41.6794 36.1965 41.0942 34.5905 40.7842C34.684 40.3407 35.1142 40.3139 35.4162 40.1483C38.3716 38.5236 40.5654 36.1935 41.8961 33.0965C42.1794 32.4365 42.4519 32.1746 43.2188 32.1479C45.0867 32.0837 46.519 31.1511 47.3206 29.449C48.0822 27.835 47.986 26.2371 46.869 24.7727C46.5697 24.102 45.9231 23.7974 45.3913 23.3699C45.6879 23.0732 46.0567 22.9904 46.4628 23.0011C47.1122 23.0171 47.7642 23.0252 48.3895 22.798C48.9987 22.8755 49.5786 22.7125 50.1558 22.5709C50.578 22.4667 50.8104 22.3037 50.6848 21.7318C49.2766 15.3588 45.9391 10.2523 40.6055 6.51128C35.98 3.2673 30.8254 1.83503 25.1471 2.16905C22.6994 2.31334 20.3586 2.78898 18.0766 3.61467C16.2622 4.27202 14.5307 5.1191 12.9408 6.22804C12.4277 6.5861 12.4357 6.59412 12.7884 7.00029C12.7751 7.60152 13.1305 8.04777 13.4111 8.53143C14.194 9.87819 15.2709 11.0005 16.2061 12.2297C14.194 15.4683 13.9455 19.0517 14.1406 22.7232C14.0764 22.7312 14.0256 22.7633 13.9882 22.8194C11.3722 22.9316 9.37345 24.9865 9.42422 27.517C9.47499 30.0609 11.5352 32.1318 14.1112 32.0971C14.7899 32.0891 14.9903 32.3055 15.2201 32.864C15.9176 34.5635 16.8768 36.108 18.2129 37.396C19.2176 38.6145 20.5323 39.4268 21.8764 40.2071C22.1329 40.354 22.5632 40.33 22.5872 40.7816Z" fill="#6E2F05"/>
<path d="M0.0609436 76.0139C9.22106 76.0112 18.3785 76.0059 27.5387 76.0032C33.2891 76.0005 39.0396 76.0059 44.79 76.0005C47.3259 75.9978 49.1456 74.2583 49.175 71.7064C49.2178 67.8425 49.2632 63.9785 49.167 60.1173C49.0628 55.9701 47.6893 52.2665 44.8515 49.1668C44.6511 48.9504 44.3865 48.774 44.3972 48.4266C45.0305 48.5576 45.6638 48.6858 46.2971 48.8168C46.9598 50.249 47.5744 51.7134 48.7849 52.8063C48.9292 52.9853 49.0574 53.1777 49.2178 53.3407C50.8264 54.9734 52.8546 55.8205 55.011 56.419C55.011 59.4813 55.0136 62.5409 55.0083 65.6032C55.003 67.8665 54.9976 67.8665 57.1808 68.0108C57.1781 70.5093 57.1808 73.0077 57.1754 75.5062C57.1674 78.3119 55.5027 79.998 52.7263 79.998C36.6052 80.0007 20.4842 80.0007 4.36313 79.998C1.84329 79.9927 0.165157 78.4295 0.0609436 76.0139Z" fill="#424143"/>
<path d="M48.7822 52.8036C47.5717 51.7106 46.9571 50.2463 46.2944 48.814C45.6451 46.508 45.5863 44.1912 46.1742 41.8638C46.9999 39.3333 48.5925 37.3505 50.61 35.6751C52.1545 34.9162 53.6803 34.1119 55.4305 33.8928C58.9845 33.4492 62.1189 34.3604 64.8017 36.76C64.7937 36.9925 64.8178 37.2089 64.9353 37.428C67.0383 41.332 67.0089 45.2066 64.7723 49.0599C61.9666 53.8938 55.3744 55.8739 50.3454 53.3888C49.8484 53.1429 49.3915 52.7581 48.7822 52.8036ZM53.4558 47.7959C53.1779 48.5735 52.876 49.3458 52.6301 50.1341C52.4992 50.5509 52.2106 51.0132 52.7183 51.406C53.234 51.8068 53.5841 51.4034 53.9501 51.1468C54.7652 50.5723 55.5855 50.0031 56.3658 49.3832C56.8922 48.9664 57.3224 48.945 57.8622 49.3725C58.7199 50.0539 59.6258 50.6765 60.5156 51.3178C60.8203 51.537 61.1409 51.7213 61.5043 51.406C61.833 51.1228 61.825 50.7994 61.694 50.4147C61.3386 49.3805 61.018 48.3357 60.6706 47.2989C60.4782 46.7271 60.5664 46.3022 61.1142 45.9388C62.0281 45.3322 62.8858 44.6455 63.781 44.0149C64.1203 43.7744 64.2887 43.4831 64.1791 43.085C64.0589 42.6467 63.6928 42.5933 63.3053 42.6013C62.3434 42.6227 61.3787 42.6414 60.4167 42.6601C59.428 42.767 58.9016 42.3581 58.6905 41.3507C58.5035 40.4475 58.1214 39.5844 57.8408 38.7C57.7232 38.3312 57.5843 37.9972 57.1273 37.9972C56.6731 37.9972 56.5181 38.3285 56.4005 38.692C56.0932 39.6379 55.7138 40.5678 55.4866 41.5351C55.2755 42.433 54.7892 42.6948 53.9234 42.6387C52.9641 42.5773 51.9968 42.6334 51.0321 42.6227C50.6019 42.6173 50.2091 42.6868 50.0622 43.1411C49.9205 43.5766 50.2519 43.8091 50.5512 44.0282C51.2753 44.56 51.9674 45.1452 52.737 45.5968C53.6642 46.1419 53.9742 46.8099 53.4558 47.7959Z" fill="#A54AF2"/>
<path d="M28.4098 75.792C27.0177 74.7472 25.9996 73.331 24.8399 72.0724C23.8325 70.9795 22.7956 69.9053 21.815 68.783C19.7414 66.4128 17.5288 64.1655 15.3617 61.8755C14.5173 60.983 14.5681 60.5902 15.5675 59.7992C16.1901 59.3075 16.7673 58.749 17.3071 58.1665C17.8335 57.5947 17.6571 57.1378 16.8875 57.0041C16.0752 56.8625 15.2602 56.7396 14.4425 56.6541C13.5233 56.5579 13.4538 56.0502 13.721 55.326C14.4532 53.3353 15.1854 51.3445 15.9042 49.3484C16.0485 48.9476 16.2435 48.5495 16.2008 48.1005C16.9143 47.9563 17.6304 47.9723 18.3439 48.0925C18.4962 48.5628 18.6271 49.0438 18.8008 49.5061C20.1342 53.0707 21.4729 56.63 22.8117 60.1947C23.7095 62.8882 24.6715 65.5577 25.7698 68.1764C25.7858 68.6894 26.0343 69.133 26.2 69.6006C26.9295 71.6689 27.6723 73.7291 28.4098 75.792Z" fill="#424143"/>
<path d="M46.8663 24.7701C47.9833 26.2344 48.0795 27.8323 47.3179 29.4463C46.5163 31.1485 45.084 32.0811 43.2161 32.1452C42.4492 32.1719 42.1767 32.4338 41.8934 33.0938C40.5654 36.1908 38.3689 38.5236 35.4135 40.1456C35.1115 40.3113 34.6813 40.3353 34.5878 40.7816C34.0774 40.8029 33.5724 40.843 33.1635 41.2038C31.3999 41.6313 29.6229 41.8665 27.7925 41.8237C26.4858 41.7943 25.2753 41.3721 24.0087 41.2038C23.6026 40.8377 23.0949 40.8029 22.5845 40.7789C22.5604 40.3273 22.1302 40.3514 21.871 40.199C20.5269 39.4214 19.2149 38.6064 18.2075 37.3879C18.3999 37.4307 18.619 37.4254 18.7767 37.5242C21.9565 39.4802 25.3903 40.2658 29.0698 39.5791C34.0507 38.6492 37.5833 35.7766 39.8012 31.2447C41.0758 28.6367 41.0651 25.8523 40.9822 23.0519C41.6503 23.1027 42.3183 23.1534 42.9863 23.2015C42.9008 25.529 43.1894 27.8671 42.7886 30.1838C42.7378 31.3622 42.7592 31.3783 43.8575 31.0042C46.1208 30.2373 47.4061 27.7842 46.7808 25.4434C46.7193 25.2163 46.4868 24.9518 46.8663 24.7701Z" fill="#FAC2AC"/>
<path d="M22.809 60.1974C21.4702 56.6354 20.1315 53.0734 18.7981 49.5088C18.6244 49.0465 18.4935 48.5682 18.3412 48.0952C19.6639 47.1974 21.1977 46.7324 22.6139 46.0216C23.0575 45.7972 23.5171 45.6048 23.9687 45.3964C23.7576 47.2108 24.268 48.7766 25.4277 50.1982C26.1171 51.0426 26.6729 52.0072 27.21 52.9639C27.6296 53.7121 28.2869 54.332 28.4552 55.2165C27.7872 55.9032 27.0924 56.5686 26.4565 57.2821C25.8953 57.91 25.0964 58.3376 24.7944 59.1927C24.3829 59.2033 24.1638 59.516 23.934 59.7752C23.624 60.1252 23.2606 60.2588 22.809 60.1974Z" fill="#EFF0F0"/>
<path d="M28.4553 55.2165C28.2843 54.3321 27.6296 53.7121 27.2101 52.9639C26.673 52.0073 26.1172 51.0427 25.4278 50.1983C24.2654 48.7767 23.755 47.2081 23.9688 45.3964C23.9875 44.6616 24.0062 43.924 24.0249 43.1892C25.6629 43.3843 27.2502 43.9053 28.939 43.8225C30.3739 43.7504 31.7394 43.3308 33.1529 43.1919C33.1716 43.9294 33.1903 44.6669 33.2064 45.4017C33.4201 47.2135 32.9071 48.7793 31.7474 50.1983C31.058 51.0427 30.5048 52.0073 29.9677 52.9613C29.5482 53.7068 28.8989 54.3294 28.7198 55.2112C28.6316 55.2112 28.5435 55.2139 28.4553 55.2165Z" fill="#FAC2AC"/>
<path d="M48.7823 52.8036C49.3915 52.7582 49.8485 53.1429 50.3455 53.3888C55.3718 55.8739 61.964 53.8938 64.7724 49.0599C67.009 45.2093 67.0384 41.3347 64.9354 37.428C64.8178 37.2089 64.7938 36.9925 64.8018 36.76C67.9362 39.6994 69.1494 43.3068 68.2355 47.4914C67.2495 52.0073 64.3689 54.8531 59.9625 56.1758C59.7114 56.2506 59.4629 56.3362 59.2117 56.419C57.8115 56.5954 56.4086 56.566 55.0084 56.4163C52.8493 55.8178 50.8211 54.9707 49.2152 53.338C49.0548 53.175 48.9266 52.9826 48.7823 52.8036Z" fill="#8A3CDC"/>
<path d="M55.0084 56.4163C56.4086 56.5659 57.8115 56.5953 59.2118 56.4189C59.2144 59.8072 59.2171 63.1955 59.2197 66.5838C59.2197 67.9599 59.2198 67.9599 57.873 67.9733C57.6405 67.976 57.4107 67.9973 57.1782 68.008C54.9951 67.8637 55.0031 67.8637 55.0058 65.6004C55.0111 62.5381 55.0058 59.4785 55.0084 56.4163Z" fill="#F69119"/>
<path d="M33.1529 43.1918C31.7393 43.3308 30.3739 43.753 28.9389 43.8225C27.2501 43.9053 25.6629 43.3842 24.0248 43.1892C24.0195 42.5291 24.0141 41.8691 24.0115 41.2064C25.2781 41.3721 26.4886 41.797 27.7952 41.8264C29.6257 41.8664 31.4026 41.634 33.1663 41.2064C33.1609 41.8664 33.1583 42.5291 33.1529 43.1918Z" fill="#F1AD97"/>
<path d="M40.9849 48.1005C41.1319 49.4072 41.7892 50.5455 42.1847 51.7694C42.5722 52.9665 43.0265 54.1449 43.4567 55.326C43.7212 56.0475 43.6598 56.5579 42.7379 56.6567C41.9202 56.7422 41.1025 56.8652 40.2929 57.0068C39.5206 57.1404 39.3416 57.5973 39.8707 58.1665C40.3891 58.7223 40.9128 59.2701 41.5488 59.719C42.6417 60.4886 42.639 61.0016 41.7492 61.9503C37.9841 65.9665 34.2271 69.9908 30.4887 74.031C29.9303 74.6349 29.5001 75.3618 28.7679 75.7973C28.8614 75.4793 28.9443 75.1614 29.0511 74.8487C29.8127 72.6175 30.788 70.4637 31.4106 68.1844C32.5142 65.5657 33.4709 62.8935 34.3687 60.2C35.9666 56.2078 37.4336 52.1675 38.8392 48.1059C39.5553 47.9669 40.2688 47.9669 40.9849 48.1005Z" fill="#424143"/>
<path d="M31.4106 68.1791C30.788 70.4585 29.81 72.6122 29.0511 74.8435C28.9442 75.1561 28.8614 75.4768 28.7679 75.7921C28.6476 75.7921 28.5301 75.7921 28.4098 75.7921C27.6723 73.7292 26.9294 71.6663 26.1946 69.6034C26.0289 69.1358 25.7804 68.6922 25.7644 68.1791C26.053 65.7929 26.3442 63.404 26.6328 61.0178C28.7171 62.9631 28.6129 62.7867 30.5422 61.0071C30.8334 63.3987 31.122 65.7902 31.4106 68.1791Z" fill="#8A3CDC"/>
<path d="M40.9849 23.0546C41.0677 25.855 41.0811 28.6394 39.8038 31.2474C37.586 35.782 34.0534 38.6519 29.0725 39.5818C25.3929 40.2686 21.9592 39.4829 18.7794 37.5269C18.6217 37.4307 18.3999 37.4334 18.2102 37.3907C16.8741 36.1027 15.9148 34.5582 15.2174 32.8587C14.9876 32.3002 14.7872 32.0838 14.1085 32.0918C11.5325 32.1265 9.47228 30.0556 9.42151 27.5117C9.37074 24.9812 11.3695 22.9237 13.9856 22.8141C13.9856 23.1802 13.9454 23.5516 13.9935 23.9097C14.0737 24.5216 13.7985 24.7781 13.24 24.9705C12.0456 25.382 11.3348 26.4162 11.3936 27.5091C11.4604 28.7409 12.3048 29.7082 13.5366 30.0877C14.2741 30.3148 14.5226 30.0075 14.357 29.3822C14.1325 28.5245 14.2046 27.6667 14.1886 26.809C14.1619 25.4462 14.1539 24.0834 14.1352 22.7206C13.9401 19.049 14.1886 15.463 16.2007 12.2271C17.2135 13.0848 18.1888 13.9933 19.247 14.7896C25.6922 19.6396 33.0139 22.2102 40.9849 23.0546ZM28.6049 32.5995C27.8727 32.5995 27.1379 32.5781 26.4084 32.6048C25.4598 32.6396 25.1845 33.1179 25.5773 33.997C26.0904 35.1541 27.4745 36.0519 28.6717 36.0038C29.9409 35.953 31.2289 35.0258 31.6671 33.8474C31.9343 33.1286 31.6698 32.6556 30.9029 32.6129C30.1387 32.5674 29.3718 32.6022 28.6049 32.5995ZM35.3547 23.6532C34.4061 23.6799 33.5991 24.5376 33.6338 25.4836C33.6659 26.3841 34.4836 27.1724 35.3894 27.175C36.3381 27.1777 37.1664 26.3467 37.1584 25.3981C37.1504 24.4521 36.298 23.6291 35.3547 23.6532ZM21.7882 23.6532C20.8423 23.6478 20.0059 24.4869 20.0166 25.4301C20.0273 26.3814 20.869 27.1964 21.8176 27.175C22.7261 27.1537 23.5171 26.3627 23.5411 25.4515C23.5678 24.5109 22.7368 23.6585 21.7882 23.6532Z" fill="#FDD1BE"/>
<path d="M40.985 23.0546C33.0113 22.2102 25.6923 19.6396 19.2471 14.7896C18.1889 13.9933 17.2135 13.0848 16.2008 12.227C15.2655 10.9979 14.1887 9.87556 13.4057 8.5288C13.1252 8.04514 12.7671 7.59889 12.7831 6.99765C13.0904 6.87741 13.4084 6.77587 13.7023 6.63157C19.0547 4.01554 24.6341 3.34483 30.4166 4.78245C36.2392 6.23075 40.9716 9.3919 44.4828 14.2606C46.3373 16.8312 47.7963 19.6289 48.3868 22.7981C47.7615 23.0225 47.1122 23.0172 46.4602 23.0011C46.054 22.9905 45.6853 23.0733 45.3887 23.3699C44.6725 23.0786 43.9297 23.1775 43.1895 23.2122C43.1227 23.2096 43.0559 23.2096 42.9891 23.2069C42.321 23.1561 41.653 23.1054 40.985 23.0546ZM43.2002 21.6009C43.8068 21.5609 44.7073 21.8067 44.7393 20.8474C44.7768 19.7866 43.8308 20.0564 43.1708 19.9976C41.6236 19.8587 40.0604 19.7946 38.5346 19.5327C33.992 18.7578 29.6524 17.3442 25.6041 15.1049C25.0536 14.8003 24.4952 14.624 24.1638 15.3107C23.8244 16.0162 24.4016 16.3181 24.92 16.5693C26.1786 17.1759 27.4238 17.8118 28.7065 18.3543C33.3319 20.3103 38.1712 21.323 43.2002 21.6009ZM22.0875 13.1997C21.5852 13.1944 21.3741 13.4562 21.3928 13.9399C21.4115 14.3915 21.644 14.7656 22.0768 14.7469C22.5578 14.7255 22.9533 14.3541 22.9346 13.8464C22.9159 13.4108 22.5365 13.2024 22.0875 13.1997Z" fill="#8C3F0A"/>
<path d="M48.3894 22.798C47.7989 19.6288 46.3398 16.8311 44.4854 14.2605C40.9715 9.39184 36.2391 6.23336 30.4192 4.78239C24.6367 3.34477 19.0546 4.01548 13.7049 6.63151C13.4083 6.77581 13.093 6.87468 12.7857 6.9976C12.433 6.59143 12.425 6.58074 12.938 6.22535C14.5279 5.11641 16.2595 4.26933 18.0739 3.61199C20.3559 2.78629 22.6967 2.31065 25.1444 2.16635C30.8227 1.83234 35.9799 3.26461 40.6028 6.50859C45.9364 10.2496 49.2739 15.3561 50.6821 21.7291C50.8077 22.301 50.5752 22.4667 50.153 22.5682C49.5758 22.7125 48.996 22.8755 48.3894 22.798Z" fill="#7B3108"/>
<path d="M43.1922 23.2095C43.9323 23.1748 44.6752 23.0759 45.3913 23.3672C45.9204 23.7947 46.5698 24.0993 46.869 24.77C46.4896 24.9517 46.7221 25.2163 46.7835 25.4461C47.4115 27.7869 46.1235 30.2399 43.8602 31.0068C42.7619 31.3809 42.7432 31.3649 42.7913 30.1865C44.432 30.0903 45.378 29.3528 45.728 27.8938C45.9552 26.9452 45.3272 25.406 44.2824 25.1228C43.0906 24.8021 43.1227 24.0886 43.1922 23.2095Z" fill="#FDD1BE"/>
<path d="M14.1379 22.7206C14.154 24.0834 14.1646 25.4462 14.1914 26.809C14.2074 27.6667 14.1352 28.5245 14.3597 29.3822C14.5227 30.0075 14.2769 30.3148 13.5394 30.0877C12.3075 29.7082 11.4604 28.7409 11.3963 27.5091C11.3375 26.4188 12.0483 25.3847 13.2428 24.9705C13.8012 24.7781 14.0765 24.5216 13.9963 23.9097C13.9509 23.5489 13.9883 23.1802 13.9883 22.8141C14.023 22.7607 14.0711 22.7286 14.1379 22.7206Z" fill="#F1AD97"/>
<path d="M53.4558 47.7959C53.9742 46.8099 53.6643 46.1419 52.729 45.5914C51.9594 45.1398 51.2673 44.5546 50.5432 44.0229C50.2439 43.8038 49.9126 43.5713 50.0542 43.1357C50.2038 42.6815 50.5966 42.612 51.0242 42.6173C51.9888 42.628 52.9561 42.5719 53.9154 42.6334C54.7812 42.6895 55.2675 42.4276 55.4786 41.5298C55.7058 40.5651 56.0825 39.6352 56.3925 38.6866C56.5101 38.3205 56.6677 37.9892 57.1193 37.9918C57.5763 37.9918 57.7152 38.3285 57.8328 38.6946C58.1161 39.5791 58.4955 40.4422 58.6825 41.3454C58.891 42.3528 59.4201 42.7616 60.4061 42.6547C60.3259 43.248 59.7861 43.4377 59.388 43.6755C58.5222 44.1939 58.4661 44.8406 58.7841 45.701C59.1181 46.6015 59.3345 47.5448 59.6525 48.4533C59.7915 48.8514 59.7968 49.1507 59.4548 49.426C59.1101 49.7065 58.8509 49.5248 58.5676 49.3137C57.9584 48.8568 57.2877 48.4693 56.7292 47.959C55.7966 47.1119 54.9041 46.6122 53.8406 47.7372C53.7711 47.8146 53.5868 47.7799 53.4558 47.7959Z" fill="#FDC71F"/>
<path d="M53.4559 47.7959C53.5868 47.7799 53.7712 47.8146 53.8406 47.7398C54.9041 46.6175 55.7993 47.1145 56.7292 47.9616C57.2904 48.472 57.9584 48.8594 58.5677 49.3164C58.8509 49.5275 59.1074 49.7092 59.4548 49.4286C59.7969 49.1507 59.7942 48.8541 59.6526 48.456C59.3346 47.5474 59.1181 46.6042 58.7841 45.7036C58.4661 44.8432 58.5249 44.1966 59.388 43.6782C59.7862 43.4403 60.326 43.2506 60.4061 42.6574C61.3708 42.6387 62.3327 42.62 63.2974 42.5986C63.6848 42.5906 64.0509 42.644 64.1712 43.0823C64.2807 43.4804 64.1151 43.7744 63.773 44.0122C62.8778 44.6455 62.0174 45.3295 61.1062 45.9361C60.5584 46.2995 60.4702 46.7244 60.6626 47.2962C61.01 48.333 61.3307 49.3778 61.6861 50.412C61.8197 50.7968 61.8277 51.1174 61.4963 51.4033C61.1329 51.7186 60.8123 51.5343 60.5077 51.3152C59.6178 50.6738 58.712 50.0539 57.8542 49.3698C57.3144 48.9396 56.8842 48.961 56.3578 49.3805C55.5775 50.0005 54.7572 50.5696 53.9422 51.1441C53.5761 51.4007 53.226 51.8042 52.7103 51.4033C52.2053 51.0105 52.4912 50.5483 52.6222 50.1314C52.876 49.3458 53.178 48.5762 53.4559 47.7959Z" fill="#F69119"/>
<path d="M26.6355 61.0177C26.3469 63.4039 26.0557 65.7928 25.7671 68.1791C24.6715 65.5603 23.7095 62.8882 22.809 60.1973C23.2606 60.2588 23.6267 60.1279 23.9367 59.7752C24.1665 59.516 24.3856 59.2006 24.7971 59.1926C25.4865 59.7217 26.0877 60.3416 26.6355 61.0177Z" fill="#CECFD2"/>
<path d="M43.1921 23.2096C43.1253 24.0887 43.0906 24.8022 44.2823 25.1228C45.3271 25.4061 45.9551 26.9452 45.7279 27.8938C45.3779 29.3528 44.432 30.093 42.7913 30.1865C43.1948 27.8698 42.9035 25.5317 42.989 23.2042C43.0558 23.2069 43.1253 23.2069 43.1921 23.2096Z" fill="#F1AD97"/>
<path d="M26.6356 61.0178C26.0904 60.3417 25.4892 59.7218 24.7971 59.1927C25.0964 58.3376 25.8954 57.91 26.4592 57.2821C27.0952 56.5686 27.7899 55.9033 28.4579 55.2165C28.5461 55.2139 28.6343 55.2139 28.7252 55.2112C29.3959 55.8979 30.088 56.5633 30.7239 57.2794C31.2851 57.9101 32.0867 58.3349 32.386 59.1927C31.6886 59.7111 31.1087 60.3524 30.5449 61.0071C28.6129 62.7867 28.7198 62.9631 26.6356 61.0178Z" fill="#A54AF2"/>
<path d="M32.3833 59.1927C32.0841 58.3349 31.2824 57.9101 30.7213 57.2794C30.0826 56.5633 29.3905 55.8979 28.7225 55.2112C28.8988 54.3294 29.5482 53.7094 29.9704 52.9612C30.5075 52.0073 31.0606 51.0426 31.75 50.1982C32.9097 48.7767 33.4228 47.2134 33.209 45.4017C34.9299 46.1927 36.6507 46.9863 38.3743 47.7693C38.5586 47.8521 38.7564 47.8895 38.8392 48.1033C37.4363 52.1676 35.9667 56.2052 34.3687 60.1974C33.9652 60.2375 33.6125 60.1707 33.3106 59.8447C33.054 59.5668 32.8323 59.2114 32.3833 59.1927Z" fill="#EFF0F0"/>
<path d="M32.3833 59.1926C32.8295 59.2113 33.054 59.5694 33.3105 59.8473C33.6125 60.1733 33.9652 60.2374 34.3687 60.2C33.4708 62.8935 32.5142 65.5657 31.4106 68.1844C31.122 65.7928 30.8334 63.4013 30.5422 61.0097C31.106 60.3497 31.6859 59.711 32.3833 59.1926Z" fill="#CECFD2"/>
<path d="M28.605 32.5994C29.3719 32.5994 30.1388 32.5674 30.903 32.6101C31.6699 32.6529 31.9345 33.1258 31.6672 33.8447C31.2263 35.0257 29.9384 35.953 28.6718 36.0011C27.4746 36.0492 26.0932 35.1513 25.5774 33.9943C25.1873 33.1152 25.4599 32.6368 26.4085 32.6021C27.1406 32.5781 27.8728 32.5994 28.605 32.5994Z" fill="#F1AD97"/>
<path d="M35.3548 23.6531C36.298 23.6264 37.1505 24.4494 37.1585 25.398C37.1665 26.3466 36.3381 27.1777 35.3895 27.175C34.4837 27.1723 33.666 26.384 33.6339 25.4835C33.5992 24.5376 34.4062 23.6798 35.3548 23.6531Z" fill="#985121"/>
<path d="M21.7882 23.6531C22.7342 23.6584 23.5678 24.5109 23.5411 25.4515C23.5171 26.3627 22.7261 27.1536 21.8176 27.175C20.8717 27.1964 20.0299 26.3814 20.0166 25.4301C20.0059 24.4868 20.8423 23.6478 21.7882 23.6531Z" fill="#985121"/>
<path d="M43.2001 21.6009C38.1712 21.323 33.3319 20.3102 28.7091 18.3542C27.4238 17.8091 26.1786 17.1731 24.9226 16.5692C24.4016 16.3181 23.8244 16.0188 24.1664 15.3107C24.4978 14.6239 25.0563 14.8003 25.6067 15.1049C29.655 17.3442 33.9919 18.7577 38.5373 19.5327C40.0657 19.7919 41.6263 19.856 43.1734 19.9976C43.8334 20.0564 44.7794 19.7865 44.742 20.8474C44.7072 21.8067 43.8067 21.5581 43.2001 21.6009Z" fill="#985121"/>
<path d="M22.0875 13.1997C22.5337 13.2023 22.9159 13.4108 22.9319 13.8463C22.9506 14.354 22.5551 14.7255 22.0741 14.7468C21.6412 14.7655 21.4088 14.3914 21.3901 13.9399C21.374 13.4562 21.5851 13.1943 22.0875 13.1997Z" fill="#985121"/>
</svg>
