<svg width="44" height="44" viewBox="0 0 44 44" fill="none" xmlns="http://www.w3.org/2000/svg">
<path d="M21.6 42C32.6457 42 41.6 33.0457 41.6 22C41.6 10.9543 32.6457 2 21.6 2C10.5543 2 1.60001 10.9543 1.60001 22C1.60001 33.0457 10.5543 42 21.6 42Z" stroke="white" stroke-width="3" stroke-miterlimit="10"/>
<mask id="mask0_76_1499" style="mask-type:luminance" maskUnits="userSpaceOnUse" x="1" y="2" width="41" height="40">
<path d="M21.6 42C32.6457 42 41.6 33.0457 41.6 22C41.6 10.9543 32.6457 2 21.6 2C10.5543 2 1.60001 10.9543 1.60001 22C1.60001 33.0457 10.5543 42 21.6 42Z" fill="white"/>
</mask>
<g mask="url(#mask0_76_1499)">
<mask id="mask1_76_1499" style="mask-type:luminance" maskUnits="userSpaceOnUse" x="-13" y="2" width="69" height="40">
<path d="M55.8786 2H-12.6786V42H55.8786V2Z" fill="white"/>
</mask>
<g mask="url(#mask1_76_1499)">
<path d="M55.8786 2H-12.6786V42H55.8786V2Z" fill="#1C2A7D"/>
</g>
<mask id="mask2_76_1499" style="mask-type:luminance" maskUnits="userSpaceOnUse" x="-13" y="2" width="69" height="40">
<path d="M55.8786 2H-12.6786V42H55.8786V2Z" fill="white"/>
</mask>
<g mask="url(#mask2_76_1499)">
<path d="M55.8786 8.65601H-12.6786V35.3116H55.8786V8.65601Z" fill="white"/>
</g>
<mask id="mask3_76_1499" style="mask-type:luminance" maskUnits="userSpaceOnUse" x="-13" y="2" width="69" height="40">
<path d="M55.8786 2H-12.6786V42H55.8786V2Z" fill="white"/>
</mask>
<g mask="url(#mask3_76_1499)">
<path d="M55.8786 15.3274H-12.6786V28.6552H55.8786V15.3274Z" fill="#BC0030"/>
</g>
</g>
</svg>
