<svg width="41" height="40" viewBox="0 0 41 40" fill="none" xmlns="http://www.w3.org/2000/svg">
<mask id="mask0_76_7112" style="mask-type:luminance" maskUnits="userSpaceOnUse" x="0" y="0" width="41" height="40">
<path d="M20.2 40C31.2457 40 40.2 31.0457 40.2 20C40.2 8.95431 31.2457 0 20.2 0C9.1543 0 0.200012 8.95431 0.200012 20C0.200012 31.0457 9.1543 40 20.2 40Z" fill="white"/>
</mask>
<g mask="url(#mask0_76_7112)">
<path d="M20.2 39.9989H41.0007V19.415H20.2V39.9989ZM30.7255 22.918L31.5094 25.3366H34.0616L31.9932 26.8379L32.7772 29.2566L30.7088 27.7553L28.6404 29.2566L29.4243 26.8379L27.356 25.3366H29.9081L30.7255 22.918Z" fill="#F9F9F9"/>
<path d="M20.2001 0H-0.600601V19.4162H20.2001V0ZM11.743 15.2294L9.67464 13.7281L7.60626 15.2294L8.39022 12.8107L6.32185 11.3094H8.87398L9.65796 8.89075L10.442 11.3094H12.9941L10.9257 12.8107L11.743 15.2294Z" fill="#F9F9F9"/>
<path d="M9.84138 11.8264V11.8559L9.87089 11.8264H9.84138Z" fill="#0068B5"/>
<path d="M10.1249 12.06L10.2083 11.9433L10.0249 11.9099L10.0916 12.0767L10.1249 12.06Z" fill="#0068B5"/>
<path d="M9.67464 12.093L9.42445 11.7427L9.25763 12.0763L9.77472 12.2431L9.67464 12.093Z" fill="#0068B5"/>
<path d="M20.2 19.415H-0.600708V39.9989H20.2V19.415Z" fill="#0068B5"/>
<path d="M41.0007 0H20.2V19.4162H41.0007V0Z" fill="#F51934"/>
<path d="M30.909 25.8718V25.9013L30.9237 25.8718H30.909Z" fill="#F51934"/>
<path d="M31.1758 26.1062L31.2593 25.9894L31.0758 25.9561L31.1592 26.1062H31.1758Z" fill="#F51934"/>
<path d="M34.0616 25.3379H31.5261L30.7255 22.9192L29.9415 25.3379H27.3894L29.4577 26.8391L28.6738 29.2745L30.7255 27.7732L32.7939 29.2745L32.0099 26.8391L34.0616 25.3379Z" fill="#F51934"/>
<path d="M13.0107 11.3094H10.4586L9.67463 8.87402L8.89064 11.3094H6.33852L8.40692 12.8106L7.60626 15.2293L9.67463 13.7281L11.743 15.2293L10.9424 12.8106L13.0107 11.3094Z" fill="#0068B5"/>
</g>
</svg>
