<svg width="44" height="44" viewBox="0 0 44 44" fill="none" xmlns="http://www.w3.org/2000/svg">
<path d="M22.4 42C33.4457 42 42.4 33.0457 42.4 22C42.4 10.9543 33.4457 2 22.4 2C11.3544 2 2.40002 10.9543 2.40002 22C2.40002 33.0457 11.3544 42 22.4 42Z" stroke="white" stroke-width="3" stroke-miterlimit="10"/>
<mask id="mask0_76_7139" style="mask-type:luminance" maskUnits="userSpaceOnUse" x="2" y="2" width="41" height="40">
<path d="M22.4 42C33.4457 42 42.4 33.0457 42.4 22C42.4 10.9543 33.4457 2 22.4 2C11.3544 2 2.40002 10.9543 2.40002 22C2.40002 33.0457 11.3544 42 22.4 42Z" fill="white"/>
</mask>
<g mask="url(#mask0_76_7139)">
<mask id="mask1_76_7139" style="mask-type:luminance" maskUnits="userSpaceOnUse" x="-12" y="2" width="69" height="40">
<path d="M56.6951 2H-11.862V42H56.6951V2Z" fill="white"/>
</mask>
<g mask="url(#mask1_76_7139)">
<path d="M56.6951 2H-11.862V42H56.6951V2Z" fill="#D30025"/>
</g>
<mask id="mask2_76_7139" style="mask-type:luminance" maskUnits="userSpaceOnUse" x="-12" y="2" width="69" height="40">
<path d="M56.6951 2H-11.862V42H56.6951V2Z" fill="white"/>
</mask>
<g mask="url(#mask2_76_7139)">
<mask id="mask3_76_7139" style="mask-type:luminance" maskUnits="userSpaceOnUse" x="-12" y="2" width="69" height="40">
<path d="M56.6951 2H-11.862V42H56.6951V2Z" fill="white"/>
</mask>
<g mask="url(#mask3_76_7139)">
<path d="M22.4166 11.9912C27.9379 11.9912 32.4083 16.4783 32.4083 21.9829C32.4083 27.5041 27.9379 31.9745 22.4166 31.9745C16.8787 31.9745 12.4083 27.5041 12.4083 21.9829C12.4083 16.4783 16.8787 11.9912 22.4166 11.9912Z" fill="white"/>
</g>
<mask id="mask4_76_7139" style="mask-type:luminance" maskUnits="userSpaceOnUse" x="-12" y="2" width="69" height="40">
<path d="M56.6951 2H-11.862V42H56.6951V2Z" fill="white"/>
</mask>
<g mask="url(#mask4_76_7139)">
<path d="M22.4165 14.4934C26.5532 14.4934 29.9061 17.8462 29.9061 21.983C29.9061 26.1198 26.5532 29.4892 22.4165 29.4892C18.263 29.4892 14.9102 26.1364 14.9102 21.983C14.8935 17.8462 18.263 14.4934 22.4165 14.4934Z" fill="#D30025"/>
</g>
<mask id="mask5_76_7139" style="mask-type:luminance" maskUnits="userSpaceOnUse" x="-12" y="2" width="69" height="40">
<path d="M56.6951 2H-11.862V42H56.6951V2Z" fill="white"/>
</mask>
<g mask="url(#mask5_76_7139)">
<path d="M24.4015 15.9944C27.7042 15.9944 30.3898 18.6799 30.3898 21.9827C30.3898 25.3021 27.7042 27.9877 24.4015 27.9877C21.082 27.9877 18.3965 25.3021 18.3965 21.9827C18.3965 18.6799 21.0987 15.9944 24.4015 15.9944Z" fill="white"/>
</g>
<mask id="mask6_76_7139" style="mask-type:luminance" maskUnits="userSpaceOnUse" x="-12" y="2" width="69" height="40">
<path d="M56.6951 2H-11.862V42H56.6951V2Z" fill="white"/>
</mask>
<g mask="url(#mask6_76_7139)">
<path d="M19.9146 21.983L24.1848 23.3841L24.8854 21.249" fill="#D30025"/>
</g>
<mask id="mask7_76_7139" style="mask-type:luminance" maskUnits="userSpaceOnUse" x="-12" y="2" width="69" height="40">
<path d="M56.6951 2H-11.862V42H56.6951V2Z" fill="white"/>
</mask>
<g mask="url(#mask7_76_7139)">
<path d="M19.9146 21.9826L24.1848 20.5981L24.8854 22.7499" fill="#D30025"/>
</g>
<mask id="mask8_76_7139" style="mask-type:luminance" maskUnits="userSpaceOnUse" x="-12" y="2" width="69" height="40">
<path d="M56.6951 2H-11.862V42H56.6951V2Z" fill="white"/>
</mask>
<g mask="url(#mask8_76_7139)">
<path d="M23.0171 17.7129V22.2166H25.269" fill="#D30025"/>
</g>
<mask id="mask9_76_7139" style="mask-type:luminance" maskUnits="userSpaceOnUse" x="-12" y="2" width="69" height="40">
<path d="M56.6951 2H-11.862V42H56.6951V2Z" fill="white"/>
</mask>
<g mask="url(#mask9_76_7139)">
<path d="M23.0171 17.7129L25.6526 21.3493L23.8345 22.6837" fill="#D30025"/>
</g>
<mask id="mask10_76_7139" style="mask-type:luminance" maskUnits="userSpaceOnUse" x="-12" y="2" width="69" height="40">
<path d="M56.6951 2H-11.862V42H56.6951V2Z" fill="white"/>
</mask>
<g mask="url(#mask10_76_7139)">
<path d="M23.0171 26.2704L25.6526 22.6173L23.8345 21.2996" fill="#D30025"/>
</g>
<mask id="mask11_76_7139" style="mask-type:luminance" maskUnits="userSpaceOnUse" x="-12" y="2" width="69" height="40">
<path d="M56.6951 2H-11.862V42H56.6951V2Z" fill="white"/>
</mask>
<g mask="url(#mask11_76_7139)">
<path d="M23.0171 26.2701V21.7664H25.269" fill="#D30025"/>
</g>
<mask id="mask12_76_7139" style="mask-type:luminance" maskUnits="userSpaceOnUse" x="-12" y="2" width="69" height="40">
<path d="M56.6951 2H-11.862V42H56.6951V2Z" fill="white"/>
</mask>
<g mask="url(#mask12_76_7139)">
<path d="M28.0378 19.3474L23.7676 20.7486L24.4515 22.8837" fill="#D30025"/>
</g>
<mask id="mask13_76_7139" style="mask-type:luminance" maskUnits="userSpaceOnUse" x="-12" y="2" width="69" height="40">
<path d="M56.6951 2H-11.862V42H56.6951V2Z" fill="white"/>
</mask>
<g mask="url(#mask13_76_7139)">
<path d="M28.0379 19.3474L25.4023 22.9838L23.5841 21.666" fill="#D30025"/>
</g>
<mask id="mask14_76_7139" style="mask-type:luminance" maskUnits="userSpaceOnUse" x="-12" y="2" width="69" height="40">
<path d="M56.6951 2H-11.862V42H56.6951V2Z" fill="white"/>
</mask>
<g mask="url(#mask14_76_7139)">
<path d="M28.0379 24.6359L25.4023 20.9995L23.5841 22.3173" fill="#D30025"/>
</g>
<mask id="mask15_76_7139" style="mask-type:luminance" maskUnits="userSpaceOnUse" x="-12" y="2" width="69" height="40">
<path d="M56.6951 2H-11.862V42H56.6951V2Z" fill="white"/>
</mask>
<g mask="url(#mask15_76_7139)">
<path d="M28.0378 24.6352L23.7676 23.2507L24.4515 21.0989" fill="#D30025"/>
</g>
</g>
</g>
</svg>
