<svg width="47" height="46" viewBox="0 0 47 46" fill="none" xmlns="http://www.w3.org/2000/svg">
<path d="M23.5 44.5C35.3741 44.5 45 34.8741 45 23C45 11.1259 35.3741 1.5 23.5 1.5C11.6259 1.5 2 11.1259 2 23C2 34.8741 11.6259 44.5 23.5 44.5Z" stroke="white" stroke-width="3" stroke-miterlimit="10"/>
<mask id="mask0_76_7297" style="mask-type:luminance" maskUnits="userSpaceOnUse" x="2" y="1" width="43" height="44">
<path d="M23.5 44.5C35.3741 44.5 45 34.8741 45 23C45 11.1259 35.3741 1.5 23.5 1.5C11.6259 1.5 2 11.1259 2 23C2 34.8741 11.6259 44.5 23.5 44.5Z" fill="white"/>
</mask>
<g mask="url(#mask0_76_7297)">
<mask id="mask1_76_7297" style="mask-type:luminance" maskUnits="userSpaceOnUse" x="-14" y="1" width="75" height="44">
<path d="M60.3315 1.5H-13.3673V44.5H60.3315V1.5Z" fill="white"/>
</mask>
<g mask="url(#mask1_76_7297)">
<path d="M60.3315 1.5H-13.3673V23H60.3315V1.5Z" fill="#FCD82B"/>
</g>
<mask id="mask2_76_7297" style="mask-type:luminance" maskUnits="userSpaceOnUse" x="-14" y="1" width="75" height="44">
<path d="M60.3315 1.5H-13.3673V44.5H60.3315V1.5Z" fill="white"/>
</mask>
<g mask="url(#mask2_76_7297)">
<path d="M60.3314 23H-13.3674V33.741H60.3314V23Z" fill="#22368F"/>
</g>
<mask id="mask3_76_7297" style="mask-type:luminance" maskUnits="userSpaceOnUse" x="-14" y="1" width="75" height="44">
<path d="M60.3315 1.5H-13.3673V44.5H60.3315V1.5Z" fill="white"/>
</mask>
<g mask="url(#mask3_76_7297)">
<path d="M60.3314 33.741H-13.3674V44.482H60.3314V33.741Z" fill="#BC0030"/>
</g>
</g>
</svg>
